<svg width="34" height="34" viewBox="0 0 34 34" fill="none" xmlns="http://www.w3.org/2000/svg">
<path fill-rule="evenodd" clip-rule="evenodd" d="M5.80986 5.04989C3.20773 7.25283 1.5891 10.4431 1.5891 14.4425V17.6649C1.5891 23.1198 3.25293 26.7326 5.8216 28.9948C8.40853 31.273 12.0329 32.2874 16.1485 32.2874V32.2875H16.2117H17.2226C21.3382 32.2875 24.9632 31.273 27.5504 29.0019C30.119 26.747 31.782 23.15 31.782 17.7281V14.5057C31.782 10.5064 30.1633 7.31606 27.5612 5.11312C24.9466 2.89965 21.2991 1.65233 17.2226 1.65233H16.2117H15.7694V1.59271C11.8461 1.66762 8.34311 2.90526 5.80986 5.04989ZM4.77134 30.1873C7.65814 32.7297 11.5623 33.8129 15.7694 33.8738V33.8766H16.2117H17.2226C21.5738 33.8766 25.6257 32.8059 28.5988 30.1961C31.5905 27.5699 33.3711 23.4899 33.3711 17.7281V14.5057C33.3711 10.0383 31.5461 6.40462 28.588 3.90029C25.6423 1.40649 21.6129 0.0632316 17.2226 0.0632316H16.2117H16.1485V0C11.7582 0 7.72877 1.34326 4.78308 3.83706C1.82494 6.34139 0 9.97503 0 14.4425V17.6649C0 23.4569 1.77974 27.5527 4.77134 30.1873ZM20.5715 12.1678V9.76678C20.4451 9.73518 20.3187 9.71939 20.1924 9.70359C20.066 9.6878 19.9396 9.672 19.8133 9.64041H18.4232C17.665 9.70359 16.9699 9.82996 16.4013 10.2723C15.7062 10.7777 15.3271 11.4728 15.2008 12.2942C15.1376 12.6101 15.1376 12.9892 15.1376 13.3051V13.3051V14.8847V15.0743H12.8629V17.7281H15.1376V24.4888H17.9177V17.7913H20.1924C20.2556 16.9067 20.3819 16.0221 20.5083 15.1375H20.0028H17.8545V13.2419C17.9177 12.4205 18.36 12.1678 18.9919 12.1678H20.3819H20.5715Z" fill="#333333"/>
</svg>
