<svg width="127" height="88" viewBox="0 0 127 88" fill="none" xmlns="http://www.w3.org/2000/svg">
<path d="M100.469 10.1778C100.616 10.1401 100.695 10.3474 100.555 10.4153C67.5015 27.2992 64.1029 72.7513 63.8276 85.9892H63.805C63.5296 72.7513 60.131 27.2992 27.0772 10.4153C26.9414 10.3474 27.0169 10.1401 27.164 10.1778C31.3169 11.2297 46.3407 15.5883 56.2949 25.7005C60.4253 29.897 67.1997 29.897 71.33 25.7005C81.2843 15.5921 96.3081 11.2297 100.461 10.1778H100.469Z" fill="#E3E3E3"/>
<path d="M63.8165 24.5729C67.485 24.5729 70.4583 21.6001 70.4576 17.933C70.4569 14.266 67.4825 11.2932 63.8141 11.2932C60.1456 11.2932 57.1723 14.266 57.173 17.933C57.1737 21.6001 60.1481 24.5729 63.8165 24.5729Z" fill="#E3E3E3"/>
<path d="M126.837 52.9944C127.116 53.1 127.022 53.511 126.724 53.4883C111.734 52.4138 99.5165 56.5235 90.0563 62.164C89.8564 62.2847 89.6565 62.4053 89.4566 62.526C87.2462 63.8758 85.1905 65.3048 83.2894 66.7677C80.4831 68.9281 78.0086 71.1564 75.8699 73.3018C72.9995 76.1824 70.7363 78.9084 69.0691 81.1065C68.922 81.2951 68.7824 81.4836 68.6504 81.6646C67.5565 83.1388 66.7568 84.334 66.2514 85.1296C66.1005 85.3633 65.7384 85.2276 65.7799 84.9561C66.0364 83.2293 66.3004 81.5514 66.5758 79.9151C66.6248 79.6285 66.6739 79.342 66.7229 79.0554C68.2468 70.1875 70.0422 62.6844 71.9923 56.335C72.0791 56.0522 72.1659 55.7694 72.2526 55.4942C80.1096 30.4738 90.2902 23.8002 94.7525 22.0319C95.0391 21.9188 95.2466 22.3109 94.9901 22.4843C85.9147 28.532 80.5396 48.8357 97.0156 48.206C111.123 47.6668 122.729 51.4486 126.833 52.9944H126.837Z" fill="#E3E3E3"/>
<path d="M104.867 38.2959C105.127 34.6381 102.372 31.462 98.7128 31.2017C95.0535 30.9414 91.876 33.6956 91.6156 37.3534C91.3552 41.0111 94.1106 44.1873 97.7699 44.4476C101.429 44.7078 104.607 41.9536 104.867 38.2959Z" fill="#E3E3E3"/>
<path fill-rule="evenodd" clip-rule="evenodd" d="M104.366 70.0523C103.065 80.813 93.2349 88.6253 82.4546 87.4603C78.5016 87.0342 74.9521 85.4808 72.0817 83.162C71.7799 82.9207 71.7384 82.4796 71.9874 82.1817C72.5305 81.537 73.2208 80.7452 74.0544 79.8327C74.2958 79.565 74.7069 79.5311 74.9898 79.7573C77.1701 81.4917 79.8482 82.6568 82.8205 82.9999C91.2094 83.9689 98.9117 77.8872 99.9226 69.5094C100.288 66.4554 99.734 63.4956 98.4817 60.9204C98.3233 60.5961 98.444 60.2078 98.7533 60.0268C99.6473 59.5103 100.56 59.005 101.492 58.5073C101.835 58.3264 102.261 58.4621 102.435 58.809C104.113 62.1759 104.853 66.0481 104.37 70.0561L104.366 70.0523Z" fill="#E3E3E3"/>
<path fill-rule="evenodd" clip-rule="evenodd" d="M95.1706 70.9373C94.4615 75.4731 90.3048 78.7534 85.7256 78.3801C83.3115 78.1841 81.2181 77.0454 79.7583 75.3676C79.5169 75.0923 79.5471 74.6738 79.8112 74.425C81.7764 72.5624 84.1037 70.5151 86.7742 68.4262C88.5735 67.0199 90.5273 65.5909 92.6359 64.1883C92.9376 63.9847 93.3525 64.0526 93.5675 64.3467C94.9028 66.1716 95.5478 68.5092 95.1706 70.9373Z" fill="#E3E3E3"/>
<path d="M0.0934561 53.0596C-0.0649669 53.1199 -0.00838726 53.3537 0.161352 53.3424C15.4944 52.0718 27.957 56.2267 37.5756 61.9615C37.7755 62.0822 37.9754 62.2028 38.1753 62.3235C40.3857 63.6733 42.4414 65.1023 44.3425 66.5652C47.1489 68.7256 49.6233 70.9539 51.762 73.0993C54.6325 75.9799 56.8956 78.7059 58.5629 80.904C58.71 81.0925 58.8495 81.2811 58.9815 81.462C60.3017 83.2417 61.1957 84.6216 61.6559 85.3682C61.7389 85.5039 61.9501 85.4247 61.9237 85.2664C61.6446 83.3586 61.3541 81.5073 61.0524 79.7088C61.0033 79.4223 60.9543 79.1357 60.9053 78.8492C59.3814 69.9812 57.5859 62.4781 55.6358 56.1287C55.549 55.8459 55.4623 55.5632 55.3755 55.2879C46.8546 28.1486 35.5991 22.5948 31.8724 21.4749C31.7026 21.4259 31.6083 21.6597 31.763 21.7426C41.3551 27.0099 47.6166 48.6482 30.6163 47.996C15.5925 47.4191 3.40902 51.7475 0.0934561 53.0558V53.0596Z" fill="#E3E3E3"/>
<path d="M29.8763 44.2353C33.5356 43.975 36.2909 40.7989 36.0305 37.1411C35.7702 33.4834 32.5927 30.7292 28.9334 30.9894C25.2741 31.2497 22.5188 34.4259 22.7792 38.0836C23.0395 41.7414 26.217 44.4956 29.8763 44.2353Z" fill="#E3E3E3"/>
<path fill-rule="evenodd" clip-rule="evenodd" d="M23.2678 69.8261C24.5691 80.5868 34.3989 88.3991 45.1792 87.2341C49.1322 86.808 52.6816 85.2546 55.5521 82.9358C55.8539 82.6945 55.8954 82.2534 55.6464 81.9555C55.1032 81.3108 54.413 80.519 53.5794 79.6065C53.338 79.3388 52.9268 79.3049 52.6439 79.5311C50.4637 81.2655 47.7856 82.4306 44.8133 82.7737C36.4244 83.7427 28.722 77.661 27.7112 69.2832C27.3453 66.2292 27.8998 63.2694 29.1521 60.6942C29.3105 60.3699 29.1898 59.9816 28.8805 59.8006C27.9865 59.2841 27.0737 58.7788 26.142 58.2811C25.7988 58.1002 25.3725 58.2359 25.199 58.5828C23.5205 61.9497 22.7812 65.8219 23.264 69.8299L23.2678 69.8261Z" fill="#E3E3E3"/>
<path fill-rule="evenodd" clip-rule="evenodd" d="M32.468 70.7081C33.1771 75.2439 37.3338 78.5241 41.913 78.1509C44.3271 77.9548 46.4205 76.8161 47.8803 75.1383C48.1217 74.8631 48.0915 74.4446 47.8274 74.1957C45.8622 72.3331 43.5349 70.2858 40.8644 68.197C39.0651 66.7906 37.1113 65.3617 35.0027 63.9591C34.701 63.7555 34.2861 63.8233 34.0711 64.1174C32.7358 65.9423 32.0908 68.28 32.468 70.7081Z" fill="#E3E3E3"/>
<path d="M71.3524 13.8449H71.3448C70.0058 10.9643 67.0976 8.96225 63.7103 8.96225C60.3231 8.96225 57.4111 10.9643 56.0759 13.8449H56.0683V8.92454L49.9992 5.71216V12.1935C50.6178 12.3707 50.3575 13.0079 50.5009 13.6187C50.6442 14.2295 50.7762 14.3916 50.7762 14.3916C50.7762 14.3916 50.3689 14.6518 50.0067 14.1729C49.6446 13.6941 49.2222 14.0561 49.2222 14.0561C49.2071 12.3254 49.7465 12.1784 49.7465 12.1784V5.57265L48.8148 5.07873L63.7103 0L78.6096 5.0825L71.3524 8.92077V13.8411V13.8449Z" fill="#E3E3E3"/>
</svg>
