<svg width="111" height="95" viewBox="0 0 111 95" fill="none" xmlns="http://www.w3.org/2000/svg">
<path d="M85.5338 21.4498C85.7877 21.3378 86.0278 21.6647 85.833 21.876C85.8028 21.9086 85.7802 21.9253 85.7415 21.9426C85.5874 22.0037 85.4262 22.0804 85.2805 22.1571C84.9889 22.302 84.7377 21.8973 85.0034 21.6987C85.0188 21.6901 85.0265 21.6898 85.0343 21.6816C85.2034 21.6042 85.3643 21.5194 85.5338 21.4498ZM83.6341 22.4744C83.8704 22.3238 84.1644 22.6172 83.9783 22.8595C83.9564 22.892 83.9413 22.9081 83.9108 22.9249C83.7579 23.0173 83.613 23.1091 83.4601 23.2017C83.2008 23.3687 82.9123 23.0126 83.1378 22.7843C83.153 22.7756 83.1681 22.7596 83.1835 22.7511C83.3361 22.6588 83.4811 22.5665 83.6341 22.4744ZM81.8408 23.6195C82.1229 23.436 82.4214 23.8388 82.1401 24.0538C81.9956 24.1535 81.8426 24.2457 81.6902 24.3461C81.4081 24.5296 81.1184 24.142 81.3833 23.9202C81.5278 23.8126 81.6881 23.7119 81.8408 23.6195ZM80.0721 24.7873C80.3699 24.6032 80.6531 25.0224 80.3716 25.2216C80.2266 25.3213 80.0744 25.4216 79.922 25.5216C79.6625 25.6888 79.3747 25.3481 79.5919 25.1124C79.5997 25.1042 79.6144 25.088 79.63 25.0793L80.0721 24.7873ZM78.3111 25.9551C78.3873 25.9051 78.4964 25.8927 78.5769 25.9443C78.7528 26.039 78.763 26.2889 78.5954 26.3974L78.1531 26.6894C77.8859 26.857 77.5895 26.4931 77.8308 26.272C77.8381 26.2638 77.8536 26.2555 77.8611 26.2476L78.3111 25.9551ZM76.5335 27.1C76.7931 26.9327 77.0897 27.2966 76.8479 27.5177C76.8409 27.5336 76.8255 27.5421 76.8103 27.5508L76.3677 27.8349C76.1081 27.9943 75.8127 27.6619 76.0299 27.4258C76.0451 27.4096 76.0681 27.3929 76.0833 27.3844L76.5335 27.1ZM74.7313 28.2144C75.0143 28.0541 75.2803 28.4271 75.046 28.64C75.0308 28.6483 75.0233 28.6565 75.0078 28.665L74.5494 28.9418C74.274 29.1021 74.0008 28.7373 74.2346 28.5162C74.2499 28.508 74.2648 28.4918 74.2802 28.4831L74.7313 28.2144ZM72.9113 29.2747C73.1868 29.1226 73.4607 29.5031 73.2031 29.717C73.1957 29.725 73.1803 29.7333 73.1727 29.7417C73.0118 29.8265 72.8587 29.911 72.7057 29.9954C72.6368 30.0375 72.5587 30.0406 72.4872 30.0122C72.2725 29.9346 72.2531 29.6458 72.452 29.536C72.6055 29.4515 72.7588 29.3671 72.9113 29.2747ZM71.0578 30.2816C71.3491 30.1288 71.6009 30.5493 71.3191 30.7409L71.2961 30.7497C71.1351 30.8345 70.9815 30.9111 70.8206 30.9959C70.5445 31.1323 70.2867 30.7594 70.5359 30.5457C70.5514 30.5374 70.5666 30.5289 70.582 30.5203L71.0578 30.2816ZM69.1617 31.2041C69.4539 31.0749 69.6974 31.4797 69.4075 31.6719L69.3848 31.6884C69.2235 31.7653 69.0619 31.8343 68.9003 31.9038C68.6163 32.0329 68.3735 31.6513 68.6315 31.4529C68.6462 31.4368 68.6618 31.4285 68.6853 31.4275C68.8388 31.3505 69.0004 31.2812 69.1617 31.2041ZM67.2304 32.0344C67.5232 31.9206 67.7355 32.3271 67.4686 32.5023C67.4532 32.5108 67.438 32.5191 67.4225 32.5274C67.2533 32.5968 67.0914 32.6584 66.9214 32.7201C66.6517 32.8251 66.418 32.4587 66.676 32.2524C66.6986 32.2438 66.7143 32.2353 66.7374 32.2265C66.8988 32.1651 67.0609 32.0961 67.2304 32.0344ZM65.2475 32.7412C65.5331 32.6513 65.7451 33.0498 65.4546 33.226C65.4391 33.2343 65.4239 33.2425 65.4081 33.2432C65.2383 33.2972 65.0684 33.3512 64.8979 33.4051C64.7668 33.4418 64.6228 33.377 64.5784 33.2458C64.5177 33.0996 64.5973 32.9397 64.7443 32.8949C64.9149 32.8485 65.085 32.7947 65.2475 32.7412ZM63.2266 33.2931C63.5133 33.2266 63.6778 33.6191 63.4184 33.7784C63.3956 33.7949 63.3723 33.8038 63.3413 33.805L63.1393 33.8525L62.8133 33.9203C62.6816 33.9414 62.5607 33.8681 62.5165 33.7366C62.4634 33.5902 62.5589 33.4298 62.7144 33.3998L63.0246 33.3324L63.2266 33.2931ZM61.1663 33.6431C61.2983 33.6299 61.4191 33.7109 61.4476 33.8351C61.501 33.9896 61.3825 34.1588 61.2268 34.1728L61.0394 34.1881L60.8448 34.2118L60.6887 34.2261C60.634 34.2283 60.5786 34.2148 60.5303 34.1854C60.3135 34.0454 60.3939 33.7133 60.6518 33.6952L60.7998 33.6813L60.9872 33.6657L61.1663 33.6431ZM59.0876 33.743C59.4406 33.7602 59.4223 34.2775 59.0703 34.2761L58.9605 34.2726L58.7724 34.2649L58.5369 34.2511C58.2547 34.2389 58.1835 33.8347 58.4769 33.7367C58.5079 33.7277 58.5387 33.7186 58.5703 33.7252L58.7974 33.7315L58.9779 33.7397L59.0876 33.743ZM57.0283 33.5373C57.3124 33.5959 57.3142 34.0189 57.0102 34.0626C56.9789 34.0639 56.956 34.0648 56.9239 34.0582L56.7429 34.0263L56.5611 33.9868L56.3951 33.9467C56.0946 33.8725 56.1389 33.4244 56.4678 33.4271C56.484 33.4264 56.4995 33.4258 56.5156 33.4328L56.6732 33.4656L56.8473 33.5055L57.0283 33.5373ZM55.0329 32.9762C55.3432 33.1046 55.1901 33.5726 54.8575 33.4765L54.7781 33.4484L54.6027 33.3773L54.4358 33.3058L54.3398 33.2628C54.0525 33.1336 54.1911 32.6896 54.5232 32.7701C54.5313 32.7698 54.5471 32.7768 54.5555 32.7843L54.6425 32.82L54.8102 32.8915L54.9768 32.9548L55.0329 32.9762ZM53.1791 32.0576C53.4362 32.2192 53.2654 32.6332 52.9564 32.5361C52.9403 32.5291 52.924 32.5219 52.9 32.5073L52.7314 32.4046L52.5702 32.2936L52.4496 32.2124C52.1839 32.0275 52.4251 31.6106 52.7208 31.7553L52.753 31.7775L52.8656 31.8511L53.0189 31.9547L53.1791 32.0576ZM51.5319 30.8171C51.7346 30.9888 51.5535 31.3484 51.2604 31.2665C51.2285 31.2522 51.2044 31.2374 51.1719 31.2074L51.1234 31.1625L50.9685 31.0199L50.7732 30.8403C50.5612 30.6295 50.8204 30.2667 51.093 30.42C51.1166 30.4344 51.1329 30.4418 51.1491 30.4644L51.3282 30.6373L51.4751 30.7723L51.5319 30.8171ZM50.093 29.3178C50.2913 29.5759 49.952 29.895 49.7087 29.6776C49.7003 29.6702 49.6923 29.6629 49.6838 29.6472L49.6182 29.5719L49.4695 29.3898L49.3457 29.2307C49.1727 29.0186 49.4181 28.703 49.6818 28.8335C49.714 28.8554 49.7384 28.8781 49.7631 28.9082L49.8867 29.0599L50.0269 29.2344L50.093 29.3178ZM48.8573 27.6222C48.8908 27.6757 48.9011 27.73 48.904 27.8001C48.8744 28.0439 48.5572 28.1276 48.4158 27.9218L48.1238 27.4798C48.0826 27.4266 48.0723 27.3723 48.0779 27.3093C48.0988 27.058 48.4164 26.9826 48.558 27.1881L48.8573 27.6222ZM47.6514 25.8706C47.7093 25.9465 47.7131 26.0402 47.6853 26.1277C47.5988 26.319 47.3419 26.3453 47.2255 26.1777L46.9181 25.7439C46.8683 25.6677 46.8564 25.5744 46.8923 25.4868C46.9707 25.2958 47.2276 25.2693 47.3517 25.4368L47.6514 25.8706ZM46.4224 24.1436C46.6133 24.4099 46.2504 24.7299 46.0055 24.4736L45.9968 24.4586L45.6823 24.033C45.4828 23.759 45.8699 23.4461 46.0991 23.7026C46.2066 23.8392 46.315 23.9992 46.4224 24.1436ZM45.1476 22.4418C45.3294 22.6691 45.0525 22.9857 44.7954 22.8241C44.771 22.8016 44.7468 22.7868 44.7305 22.7643L44.5484 22.529L44.4082 22.3467C44.2182 22.1041 44.5413 21.7775 44.7845 21.9791C44.8004 21.994 44.8167 22.0013 44.825 22.0167L44.9737 22.2064L45.1476 22.4418ZM43.8426 20.7645C44.0406 21.0151 43.7098 21.3414 43.4586 21.1324C43.4499 21.1172 43.4419 21.1096 43.4258 21.0945L43.0952 20.6851C42.8891 20.4195 43.2516 20.0994 43.4884 20.3327L43.5046 20.3555L43.8426 20.7645ZM42.492 19.1208C42.6724 19.3249 42.4431 19.6551 42.1723 19.5329C42.1402 19.5186 42.1156 19.496 42.0913 19.4658L41.7463 19.0649C41.5659 18.8607 41.787 18.5306 42.0583 18.6529C42.0982 18.6747 42.1223 18.6895 42.1471 18.7196L42.492 19.1208ZM41.0957 17.5178C41.3014 17.7521 41.0019 18.0931 40.7441 17.9157C40.7277 17.9008 40.7115 17.8857 40.7033 17.8705L40.5883 17.75L40.3507 17.4856C40.1707 17.2891 40.3465 16.9926 40.6068 17.0445C40.6545 17.0584 40.7028 17.0878 40.7354 17.1254L40.981 17.3973L41.0957 17.5178ZM39.6466 15.9563C39.842 16.1441 39.6369 16.4889 39.3668 16.3903C39.3269 16.3684 39.3028 16.3538 39.2703 16.3238L38.9027 15.9475C38.6908 15.7367 38.9423 15.3745 39.2305 15.535C39.2462 15.5421 39.2628 15.557 39.2787 15.5721L39.6466 15.9563ZM38.1527 14.4435C38.3405 14.6316 38.1804 14.9355 37.9207 14.8992C37.873 14.8855 37.825 14.8638 37.7847 14.8267L37.4019 14.4584C37.2144 14.2784 37.3738 13.9664 37.6343 14.0106C37.6812 14.0166 37.7368 14.0378 37.7695 14.0755L38.1527 14.4435ZM36.5982 12.9879C36.7931 13.16 36.635 13.5028 36.3662 13.4436C36.3112 13.4382 36.279 13.4158 36.2466 13.3858L35.8487 13.0339C35.6296 12.8471 35.8412 12.4707 36.1364 12.5994C36.1601 12.6064 36.1763 12.6213 36.2004 12.6361L36.5982 12.9879ZM34.9764 11.6055C35.2279 11.8223 34.9613 12.1933 34.6806 12.0403C34.665 12.0333 34.657 12.0257 34.6407 12.0185L34.2354 11.6827C34.1952 11.653 34.1622 11.6074 34.144 11.5534C34.0715 11.3058 34.3535 11.1144 34.5632 11.2702L34.9764 11.6055ZM33.287 10.2963C33.5447 10.4737 33.3265 10.8819 33.0315 10.7528C33.0078 10.746 32.9996 10.7387 32.9835 10.7315L32.5483 10.4204C32.2984 10.2427 32.5168 9.83447 32.8114 9.96343C32.8275 9.97067 32.8431 9.97792 32.8594 9.98493L33.287 10.2963ZM31.5235 9.09191C31.7721 9.23852 31.6318 9.63547 31.3241 9.57784C31.2925 9.57123 31.2684 9.55665 31.2448 9.54183L31.0276 9.40183L30.8023 9.26216C30.5375 9.10064 30.7088 8.68643 31.0255 8.78315C31.0415 8.79017 31.0578 8.7974 31.0735 8.80466L31.3068 8.95189L31.5235 9.09191ZM29.6862 8.0003C29.7905 8.05875 29.8503 8.18147 29.8161 8.30057C29.7838 8.46627 29.5914 8.55212 29.4391 8.47239L29.039 8.25391L28.9753 8.22515C28.9117 8.19617 28.8785 8.15084 28.8449 8.0893C28.7649 7.8578 28.9911 7.65287 29.2148 7.75337L29.2787 7.78979L29.6862 8.0003ZM27.7615 7.06064C28.0401 7.17469 27.9402 7.60134 27.6254 7.56723C27.6022 7.56817 27.5861 7.56093 27.5624 7.55423L27.0765 7.3469C26.7903 7.23338 26.8902 6.80673 27.2043 6.83298C27.228 6.83968 27.2519 6.8466 27.2676 6.85385L27.7615 7.06064ZM25.7578 6.29668C26.0509 6.3788 25.9912 6.83538 25.654 6.81752C25.6379 6.8105 25.6224 6.81114 25.6063 6.8039L25.2256 6.68632L25.107 6.65191C24.8059 6.56245 24.8665 6.1295 25.1797 6.13256C25.2031 6.13161 25.2267 6.13064 25.2424 6.1379L25.3771 6.17933L25.7578 6.29668ZM23.6846 5.75474C23.9923 5.81259 23.9563 6.2761 23.6274 6.27346C23.6121 6.27409 23.5961 6.27474 23.5808 6.27536L23.4067 6.23553L23.0679 6.17894C22.7841 6.13568 22.7669 5.71357 23.0701 5.65434C23.1014 5.65307 23.1243 5.65213 23.1556 5.65086L23.5109 5.71445L23.6846 5.75474ZM21.5437 5.46586C21.8492 5.47689 21.8983 5.91327 21.5884 5.98877C21.565 5.98972 21.5493 5.99803 21.526 5.99131L21.2278 5.97187L21.0002 5.96555C20.7111 5.96964 20.6315 5.54984 20.9246 5.45201C20.956 5.44306 20.9786 5.43447 21.0102 5.44085L21.2531 5.44654L21.5437 5.46586ZM19.391 5.47511C19.7186 5.44623 19.8008 5.9205 19.467 5.99675L19.4439 6.00536L19.1394 6.02563L18.9212 6.05006C18.6336 6.0931 18.4993 5.68364 18.783 5.54695C18.8066 5.5381 18.8299 5.52948 18.8533 5.52853L19.0868 5.50348L19.391 5.47511ZM17.2595 5.8125C17.6006 5.72805 17.7304 6.22384 17.3903 6.3238L17.1577 6.38017L16.8867 6.45387C16.7705 6.48204 16.6511 6.43999 16.5843 6.33311C16.5002 6.18749 16.5703 5.98912 16.7405 5.94319L17.0192 5.86917L17.2595 5.8125ZM15.2039 6.46747C15.4887 6.3463 15.7234 6.72801 15.4652 6.92657C15.4502 6.93485 15.4345 6.94338 15.4114 6.95221L15.2729 7.01263L14.9343 7.15944C14.6346 7.29678 14.4059 6.8677 14.6808 6.69214L14.7115 6.67511L15.0656 6.52789L15.2039 6.46747ZM13.2777 7.42251C13.5528 7.2625 13.8263 7.62707 13.5924 7.84809C13.577 7.85639 13.5621 7.87278 13.5466 7.8813L13.4932 7.91503L13.1499 8.12472L13.1115 8.14973C12.837 8.32528 12.5562 7.9689 12.7742 7.74085C12.7892 7.73235 12.8046 7.71617 12.8119 7.70798L12.8653 7.67446L13.2166 7.45656L13.2777 7.42251ZM11.503 8.6377C11.7383 8.45586 12.0639 8.75584 11.8784 9.01369C11.8637 9.03007 11.8484 9.04626 11.8334 9.05476L11.4999 9.32674L11.4321 9.38429C11.2128 9.58104 10.8651 9.30541 11.0342 9.03245C11.0493 9.01627 11.0642 8.99988 11.0794 8.9837L11.1628 8.91763L11.503 8.6377ZM9.89367 10.0651C10.1046 9.86084 10.459 10.1048 10.3217 10.3767C10.3069 10.4008 10.2923 10.4248 10.2695 10.4413L9.96136 10.7592L9.90887 10.8161C9.69894 11.0438 9.32723 10.7696 9.48886 10.4967C9.49587 10.4807 9.50321 10.4727 9.51854 10.4563L9.57838 10.3912L9.89367 10.0651ZM8.46322 11.6655C8.64964 11.431 9.01838 11.6429 8.91274 11.9291C8.89794 11.9531 8.89092 11.9692 8.87591 11.9933L8.81608 12.0582L8.54854 12.4057C8.37053 12.6477 7.97839 12.4368 8.09136 12.1424C8.10617 12.1184 8.11319 12.1025 8.12852 12.0861L8.41149 11.7303L8.46322 11.6655ZM7.18719 13.3926C7.2829 13.2399 7.50938 13.2307 7.61717 13.3751C7.6907 13.4585 7.69578 13.5834 7.62956 13.6799L7.4965 13.8734L7.34221 14.1221C7.19527 14.3628 6.78225 14.2152 6.86375 13.9068C6.87014 13.8752 6.88524 13.8588 6.89217 13.8351L7.0541 13.5858L7.18719 13.3926ZM6.06385 15.2154C6.20939 14.9511 6.62211 15.091 6.55638 15.399C6.54967 15.4227 6.55031 15.4385 6.53582 15.4702L6.2804 15.9269C6.14955 16.1748 5.76183 16.0731 5.78137 15.7828C5.78819 15.7511 5.7946 15.7197 5.80875 15.6797L5.83813 15.6316L6.06385 15.2154ZM5.09196 17.1182C5.19982 16.887 5.5304 16.9202 5.58718 17.1684C5.60516 17.2225 5.59959 17.2852 5.57043 17.3335L5.44873 17.6127L5.35536 17.8122C5.21863 18.1152 4.75803 17.9461 4.86239 17.6286L4.86878 17.597L4.96227 17.3898L5.09196 17.1182ZM4.24775 19.0781C4.36117 18.7841 4.80423 18.899 4.75458 19.2142C4.74743 19.2379 4.74807 19.2539 4.74104 19.2695L4.66959 19.4368L4.54948 19.7552C4.42148 20.0734 3.95311 19.9122 4.04951 19.5876L4.17675 19.2456L4.24775 19.0781ZM3.52298 21.0807C3.61989 20.7793 4.08572 20.8776 4.0367 21.2084C4.02968 21.2245 4.02999 21.2321 4.02297 21.2482L3.98835 21.3671L3.8629 21.7481C3.78769 22.017 3.35603 21.9879 3.343 21.6673C3.34172 21.6358 3.34873 21.6199 3.35556 21.5885L3.4807 21.1999L3.52298 21.0807ZM2.90909 23.1254C3.00515 22.7925 3.50354 22.9211 3.42354 23.261L3.3886 23.3718L3.28743 23.7676C3.21349 24.0678 2.7499 24.0242 2.76721 23.6789C2.76658 23.6634 2.76625 23.6555 2.77327 23.6394L2.87457 23.2362L2.90909 23.1254ZM2.40653 25.1968C2.4862 24.849 2.99237 24.9691 2.9196 25.309L2.88667 25.4589L2.81529 25.8219C2.7569 26.1217 2.30192 26.1014 2.28857 25.773C2.28762 25.7498 2.28698 25.7338 2.29446 25.7182L2.37318 25.3467L2.40653 25.1968ZM1.99792 27.288C2.01678 27.1697 2.13047 27.0711 2.24754 27.0663C2.41976 27.0593 2.55086 27.2107 2.52646 27.3761L2.48126 27.6124L2.43801 27.8963C2.3957 28.2033 1.92547 28.1911 1.91213 27.8629C1.91149 27.8471 1.91087 27.8316 1.91788 27.8155L1.96114 27.5319L1.99792 27.288ZM1.69244 29.3982C1.72072 29.1231 2.13316 29.0671 2.21547 29.3614C2.22517 29.4002 2.22612 29.4237 2.21961 29.4632L2.17216 29.8329L2.15479 29.9824C2.15158 30.0924 2.0694 30.1895 1.96063 30.2097C1.78234 30.256 1.61218 30.1143 1.62797 29.9258L1.64503 29.7684L1.69244 29.3982ZM1.48107 31.5206C1.49306 31.2385 1.89772 31.1749 1.99492 31.4526C2.00462 31.4917 2.00556 31.5151 2.00715 31.5541L1.96564 32.0805C1.95367 32.3628 1.54944 32.4262 1.45221 32.1483C1.44254 32.1096 1.43394 32.0865 1.43999 32.0468L1.48107 31.5206ZM1.35643 33.6472C1.36765 33.357 1.75624 33.2864 1.86933 33.5558C1.87858 33.5949 1.88753 33.6256 1.88145 33.6649L1.88014 33.8217L1.8638 34.1903C1.86714 34.4721 1.44766 34.5595 1.34949 34.2581C1.34088 34.235 1.33992 34.2116 1.33833 34.1725L1.34681 33.8041L1.35643 33.6472ZM1.31768 35.7782C1.32358 35.5353 1.59298 35.4224 1.76377 35.5799C1.81995 35.6247 1.84655 35.7019 1.84941 35.7723L1.84965 36.1557L1.85538 36.2966C1.86682 36.578 1.45607 36.6809 1.34278 36.3957C1.32575 36.365 1.32479 36.3414 1.32352 36.3101L1.31749 36.1618L1.31768 35.7782ZM1.3647 37.9057C1.35771 37.7337 1.50909 37.6024 1.6749 37.6267C1.79293 37.6454 1.89104 37.751 1.89613 37.8762L1.92538 38.4074C1.93841 38.728 1.47138 38.7936 1.396 38.476C1.39536 38.4603 1.39472 38.4445 1.3944 38.4366L1.3647 37.9057ZM1.50625 40.0293C1.47842 39.733 1.89598 39.6141 2.01777 39.9143C2.02638 39.9374 2.02701 39.9531 2.02828 39.9844L2.05708 40.3044L2.08108 40.5068C2.10145 40.8192 1.66698 40.9151 1.56093 40.6141C1.55265 40.5991 1.55169 40.5754 1.55105 40.5599L1.52704 40.3572L1.50625 40.0293ZM1.72496 42.1419C1.68213 41.8541 2.09139 41.7202 2.2283 42.004C2.23724 42.0352 2.24596 42.0504 2.24722 42.0815L2.31512 42.6032C2.32575 42.6652 2.31254 42.7285 2.27581 42.7848C2.14261 42.9859 1.8192 42.9129 1.79338 42.6713L1.72496 42.1419ZM2.03032 44.251C1.97121 43.9562 2.40376 43.8132 2.53291 44.1054C2.54195 44.1285 2.54259 44.1443 2.5512 44.1674L2.6035 44.494L2.63487 44.6885C2.6943 44.9914 2.24597 45.135 2.12353 44.8189C2.12322 44.8112 2.11492 44.796 2.11427 44.78L2.08292 44.5855L2.03032 44.251ZM2.4126 46.3491C2.3517 45.9995 2.85617 45.9006 2.93295 46.2418L3.03991 46.7538C3.05937 46.855 3.02447 46.9506 2.94866 47.0162C2.79697 47.1396 2.56699 47.0631 2.51966 46.8692L2.4126 46.3491ZM2.88877 48.4278C2.81517 48.1647 3.15184 47.9708 3.34881 48.1899C3.3735 48.2202 3.3903 48.2509 3.40031 48.2974L3.49379 48.6774L3.52993 48.8009C3.5663 48.9245 3.50146 49.0604 3.3863 49.112C3.23238 49.181 3.06477 49.1016 3.01915 48.9391L2.98202 48.8076L2.88877 48.4278ZM3.4419 50.4799C3.37797 50.2554 3.60483 50.0662 3.82076 50.1749C3.88471 50.2114 3.93365 50.2565 3.95226 50.3261L3.98863 50.4498L4.09818 50.8368C4.18647 51.0837 3.86649 51.3001 3.65463 51.0975C3.63006 51.0592 3.61314 51.0365 3.59591 50.99L3.47827 50.6036L3.4419 50.4799ZM4.08828 52.5126C3.98977 52.2192 4.38138 52.0231 4.5563 52.2821C4.57225 52.2972 4.58129 52.3205 4.58191 52.3359L4.75905 52.8376C4.78488 52.9069 4.77273 52.9857 4.7442 53.0495C4.62697 53.2498 4.33641 53.2303 4.25728 53.0145L4.08828 52.5126ZM4.81127 54.5107C4.69789 54.2181 5.10417 54.0057 5.2794 54.2725C5.29536 54.2874 5.29601 54.3032 5.30474 54.3184L5.39195 54.5498L5.49684 54.8116C5.61929 55.1278 5.16553 55.3264 5.01167 55.0192L4.89892 54.7424L4.81127 54.5107ZM5.62718 56.4818C5.49804 56.1894 5.91126 55.9534 6.09458 56.2357C6.10299 56.2431 6.10331 56.2509 6.11161 56.2664L6.32703 56.7508C6.45617 57.043 6.04317 57.279 5.85996 57.0047C5.85933 56.9892 5.85092 56.9814 5.84261 56.966L5.62718 56.4818ZM6.52783 58.4177C6.38294 58.1261 6.78741 57.8749 6.98629 58.1408C6.99502 58.156 6.99534 58.1639 7.00332 58.1715L7.17397 58.5249L7.24184 58.6471C7.39526 58.954 6.94319 59.1995 6.77402 58.8931L6.70625 58.7631L6.52783 58.4177ZM7.52025 60.3033C7.45249 60.173 7.49317 60.0146 7.61549 59.9393C7.74533 59.8714 7.91179 59.9117 7.97976 60.0418L8.05549 60.1796L8.24107 60.5009C8.35065 60.7 8.18072 60.9415 7.9518 60.896C7.88039 60.8756 7.81611 60.8311 7.78153 60.7622L7.59641 60.4409L7.52025 60.3033ZM8.59727 62.1465C8.43842 61.8943 8.75522 61.5998 8.99846 61.8089C9.01485 61.8238 9.03126 61.8389 9.0401 61.8622L9.32439 62.3046C9.48324 62.5565 9.16644 62.8511 8.92318 62.6418C8.9068 62.6269 8.89062 62.6117 8.87391 62.589L8.59727 62.1465ZM9.75851 63.9308C9.72456 63.8776 9.70595 63.8078 9.71182 63.7528C9.74105 63.5011 10.0508 63.4258 10.1921 63.6237L10.3995 63.9127L10.4916 64.0575C10.6735 64.3007 10.3651 64.603 10.1229 64.425C10.0986 64.4023 10.0824 64.3871 10.0657 64.3646L9.95788 64.2202L9.75851 63.9308ZM11.0108 65.6573C10.829 65.4297 11.1132 65.105 11.3707 65.2747C11.3947 65.2892 11.4113 65.3043 11.4276 65.3271L11.5187 65.4484L11.7499 65.7445C11.9483 65.9949 11.6244 66.3132 11.3736 66.1118C11.3579 66.1048 11.3494 66.0896 11.333 66.0742L11.1015 65.7707L11.0108 65.6573ZM12.3462 67.3173C12.1495 67.0982 12.4251 66.7505 12.6982 66.9271C12.7146 66.9422 12.7304 66.9494 12.7471 66.9722L13.0922 67.3731C13.2889 67.5922 13.0133 67.94 12.7403 67.7631C12.7239 67.7482 12.708 67.7412 12.6913 67.7182L12.3462 67.3173ZM13.7652 68.9114C13.561 68.6928 13.8127 68.3457 14.0929 68.4989C14.117 68.5135 14.1252 68.5208 14.1496 68.5435L14.4361 68.8528L14.5098 68.9282C14.7134 69.1234 14.4852 69.4849 14.1901 69.3404C14.166 69.3258 14.1497 69.3186 14.1335 69.2958L14.0514 69.2125L13.7652 68.9114ZM15.2595 70.4244C15.0724 70.2439 15.2318 69.9321 15.4918 69.9764C15.5392 69.9821 15.5948 70.0035 15.6275 70.0414L15.8146 70.2217L16.0101 70.4016C16.2462 70.6269 15.9408 71.015 15.6581 70.7994L15.4468 70.6044L15.2595 70.4244ZM16.8367 71.8632C16.6093 71.661 16.8366 71.2837 17.132 71.4282C17.1481 71.4352 17.1643 71.4506 17.1803 71.4576L17.2695 71.5322L17.5858 71.801C17.8296 72.0182 17.5552 72.3974 17.2744 72.2286C17.2587 72.2216 17.2503 72.214 17.2421 72.2064L16.9182 71.9377L16.8367 71.8632ZM18.4887 73.2208C18.2461 73.0347 18.4502 72.651 18.7438 72.7563C18.7678 72.7709 18.7841 72.7781 18.8077 72.7929L19.2282 73.1127C19.4703 73.2984 19.2667 73.6821 18.9731 73.5768C18.949 73.5622 18.9327 73.5552 18.9087 73.5404L18.4887 73.2208ZM20.2075 74.4816C20.1593 74.4443 20.1177 74.3912 20.0994 74.3295C20.0348 74.0895 20.3014 73.9062 20.5027 74.0391L20.9376 74.3423C20.9944 74.3793 21.0355 74.4324 21.0457 74.4945C21.1103 74.7345 20.8514 74.9175 20.6423 74.7772L20.2075 74.4816ZM21.9856 75.6543C21.7124 75.4853 21.9225 75.0618 22.2247 75.1828C22.2404 75.1821 22.2484 75.1895 22.2647 75.1967L22.714 75.4759C22.9792 75.6374 22.8079 76.0514 22.4908 75.9547C22.4752 75.9476 22.4589 75.9404 22.4432 75.9334L21.9856 75.6543ZM23.8297 76.7299C23.7258 76.6793 23.6739 76.5641 23.6931 76.454C23.7171 76.2728 23.9165 76.1786 24.0772 76.2661L24.541 76.5133C24.8212 76.6661 24.6506 77.0961 24.3338 76.9991C24.3257 76.9995 24.3101 76.9927 24.2938 76.9852L24.2379 76.9561L23.8297 76.7299ZM25.7169 77.7101C25.5976 77.6601 25.5453 77.5213 25.5791 77.3948C25.6278 77.244 25.8048 77.1662 25.9482 77.2389L26.4196 77.4621C26.6988 77.5919 26.5754 78.0272 26.2521 77.9621C26.236 77.9551 26.22 77.9557 26.2044 77.9485L25.7169 77.7101ZM27.6557 78.602C27.3847 78.4879 27.477 78.0616 27.7995 78.0954C27.8229 78.0944 27.8387 78.1016 27.8628 78.1162L28.3487 78.3157C28.6113 78.4223 28.5411 78.8164 28.2523 78.8281C28.2129 78.8297 28.1896 78.823 28.1496 78.8091L27.6557 78.602ZM29.637 79.3983C29.3511 79.2926 29.4351 78.8508 29.7652 78.8845C29.7805 78.8839 29.7968 78.8909 29.8129 78.8981L30.3135 79.0812C30.5991 79.1794 30.5155 79.6289 30.185 79.5875C30.1697 79.5881 30.1534 79.5809 30.1374 79.5739L29.637 79.3983ZM31.646 80.0916C31.3283 79.9873 31.4578 79.5044 31.7975 79.5844C31.9638 79.6327 32.1389 79.6959 32.3129 79.7436C32.5902 79.8262 32.5527 80.2505 32.2397 80.2632C32.2085 80.2645 32.1847 80.2576 32.1531 80.2512L31.646 80.0916ZM33.6904 80.6974C33.3578 80.6016 33.4861 80.103 33.8263 80.1834L34.0161 80.2382L34.3328 80.3193C34.6252 80.3938 34.5966 80.8331 34.276 80.8461C34.2526 80.8471 34.2291 80.8404 34.2054 80.8335L33.881 80.7528L33.6904 80.6974ZM35.7627 81.216C35.415 81.1284 35.5274 80.6307 35.8745 80.695L36.3012 80.7952L36.3881 80.8151C36.6723 80.8662 36.6661 81.2893 36.3625 81.3327C36.3312 81.334 36.3078 81.335 36.2841 81.3282L36.1894 81.3086L35.7627 81.216ZM37.8469 81.6479C37.4994 81.5759 37.5885 81.0712 37.9351 81.12L38.4556 81.2161C38.8023 81.2803 38.7132 81.7852 38.3671 81.7363L37.8469 81.6479ZM39.9429 81.9857C39.6438 81.9431 39.6417 81.5048 39.9529 81.4606C39.9763 81.4596 39.9919 81.459 40.016 81.4659L40.3071 81.5088L40.5428 81.5383C40.8817 81.5872 40.8242 82.0983 40.4705 82.0657L40.2344 82.0284L39.9429 81.9857ZM42.0597 82.2519C41.9657 82.2478 41.8927 82.1883 41.8503 82.1037C41.7564 81.9199 41.9044 81.71 42.1089 81.7252L42.6357 81.782C42.7301 81.786 42.8027 81.8458 42.8529 81.9222C42.9385 82.1145 42.7907 82.3239 42.5865 82.3087L42.0597 82.2519ZM44.1812 82.4396C43.8909 82.428 43.8268 81.9999 44.1286 81.9171C44.1595 81.9081 44.183 81.9072 44.2146 81.9136L44.5597 81.9388L44.7402 81.947C45.046 81.958 45.0878 82.4105 44.7615 82.4708C44.7462 82.4715 44.7302 82.4721 44.7068 82.4731L44.5263 82.4648L44.1812 82.4396ZM46.2995 82.5572C45.97 82.539 45.9574 82.0387 46.3092 82.0244C46.4894 82.0247 46.6695 82.0332 46.8502 82.0416C47.1317 82.0378 47.2117 82.4574 46.9259 82.5552C46.8949 82.5641 46.8718 82.5729 46.8325 82.5666L46.2995 82.5572ZM48.4305 82.5957C48.1329 82.5922 48.0614 82.18 48.3472 82.0825C48.3781 82.0733 48.4012 82.0647 48.4325 82.0634L48.9571 82.0653C49.2547 82.0688 49.3266 82.4889 49.0408 82.5867C49.0177 82.5953 48.9945 82.5962 48.9634 82.5975L48.4305 82.5957ZM50.5589 82.5716C50.262 82.5837 50.1662 82.1571 50.4675 82.0587C50.4906 82.0499 50.5139 82.0413 50.5373 82.0403L50.9519 82.0311L51.0689 82.0264C51.3895 82.0134 51.4556 82.4804 51.1373 82.5481C51.1218 82.5567 51.1063 82.5573 51.0905 82.5579L50.9656 82.563L50.5589 82.5716ZM52.6846 82.4852C52.341 82.4992 52.2966 82.0002 52.6399 81.9625L52.866 81.9457L53.1786 81.9251C53.218 81.9235 53.2731 81.9291 53.313 81.951C53.553 82.0745 53.481 82.4296 53.2162 82.4562L52.8955 82.4769L52.6846 82.4852ZM54.8006 82.3444C54.4961 82.3647 54.3925 81.9305 54.7012 81.8242C54.7243 81.8154 54.7398 81.8147 54.7556 81.8141L54.8256 81.8112L55.2861 81.7691C55.6137 81.7402 55.6874 82.2148 55.3617 82.2907L55.3304 82.292L54.8703 82.3341L54.8006 82.3444ZM56.9217 82.141C56.6334 82.1761 56.4992 81.7667 56.784 81.6378C56.8065 81.6213 56.83 81.6204 56.8609 81.6112L57.3832 81.5508C57.679 81.5153 57.8052 81.9251 57.5286 82.0536C57.4979 82.0704 57.4745 82.0714 57.4514 82.0804L56.9217 82.141ZM59.0248 81.8832C58.7369 81.9186 58.6026 81.5091 58.8871 81.3801C58.9102 81.3712 58.9331 81.3624 58.9565 81.3614C59.1354 81.3307 59.3073 81.3158 59.4863 81.293C59.5951 81.273 59.6994 81.3313 59.7502 81.4313C59.8428 81.5917 59.7335 81.7921 59.5542 81.815C59.3833 81.8375 59.2041 81.8603 59.0248 81.8832ZM61.1282 81.6254C60.8399 81.6606 60.7055 81.2514 60.9897 81.1146C61.0205 81.1055 61.0365 81.1048 61.0672 81.0959L61.5969 81.0349C61.9407 81.0054 62.0006 81.5196 61.6502 81.5652L61.1282 81.6254ZM63.2253 81.4073C62.913 81.4356 62.8165 80.9777 63.1416 80.886C63.1569 80.8854 63.1646 80.8851 63.1802 80.8768L63.711 80.8315C64.0155 80.8112 64.1191 81.2456 63.8183 81.3519C63.7949 81.3528 63.7792 81.3611 63.7558 81.3621L63.2253 81.4073ZM65.3323 81.2511C65.0198 81.2638 64.9473 80.8282 65.2327 80.7304C65.256 80.7218 65.2794 80.7209 65.3028 80.7199L65.8338 80.6904C66.131 80.6784 66.2183 81.0897 65.9408 81.2029C65.9181 81.2117 65.8867 81.2207 65.8637 81.2216L65.3323 81.2511ZM67.4424 81.1653C67.0906 81.1641 67.0773 80.6478 67.4289 80.6335C67.6087 80.6339 67.7888 80.6265 67.9609 80.6274C68.2584 80.6309 68.3379 81.0426 68.0445 81.1483C68.0215 81.1493 67.9982 81.1581 67.9671 81.1594C67.7948 81.1587 67.6146 81.1583 67.4424 81.1653ZM69.5419 81.1894C69.259 81.1695 69.1887 80.789 69.4581 80.6761C69.4964 80.659 69.528 80.6578 69.5669 80.6562C69.7474 80.6644 69.9198 80.6732 70.1004 80.6893C70.3907 80.7012 70.4472 81.1214 70.1453 81.2041C70.1217 81.2129 70.0985 81.2139 70.067 81.2152C69.8944 81.2066 69.714 81.1903 69.5419 81.1894ZM71.6239 81.3711C71.5608 81.366 71.5124 81.3364 71.4639 81.2916C71.2995 81.1024 71.4599 80.8142 71.7042 80.8512C71.8777 80.8755 72.0587 80.9073 72.2323 80.9395C72.5404 80.9973 72.5118 81.4524 72.1912 81.4655C72.1755 81.4661 72.16 81.4668 72.1362 81.46C71.9703 81.4273 71.7972 81.4033 71.6239 81.3711ZM73.6312 81.8453C73.3612 81.7546 73.4228 81.3291 73.728 81.3324C73.7596 81.339 73.7831 81.3381 73.815 81.3523C73.982 81.4159 74.1568 81.4796 74.3244 81.5587C74.6119 81.6959 74.465 82.1321 74.1487 82.0514C74.1332 82.052 74.1171 82.0448 74.1013 82.0377C73.9495 81.9654 73.7902 81.9013 73.6312 81.8453ZM75.3016 82.8815C75.1209 82.6696 75.3578 82.3389 75.6292 82.4688C75.6613 82.483 75.6857 82.5057 75.7022 82.5287C75.8335 82.6797 75.9414 82.832 76.0426 83.0078C76.1941 83.268 75.8526 83.5322 75.6328 83.3298C75.6087 83.3074 75.6 83.2922 75.5832 83.2615C75.4995 83.124 75.4085 83.0023 75.3016 82.8815ZM76.0956 84.6965C76.0216 84.4176 76.3973 84.2224 76.5719 84.4735C76.5889 84.5042 76.6054 84.5267 76.6145 84.5581L76.643 84.6821L76.6984 84.8912L76.7455 85.085C76.804 85.3645 76.4271 85.5286 76.2605 85.2849C76.2437 85.254 76.2351 85.2311 76.2257 85.2001L76.1871 85.0215L76.1318 84.8202L76.0956 84.6965ZM76.4204 86.711C76.4152 86.3901 76.8988 86.3472 76.944 86.6897L76.9497 86.8302L76.9489 87.0027L76.9409 87.183L76.9286 87.2696C76.9017 87.5682 76.4644 87.5938 76.4052 87.2909C76.4039 87.2596 76.4033 87.2441 76.4023 87.2207L76.4071 87.1499L76.416 86.9854L76.4175 86.8286L76.4204 86.711ZM76.054 88.6753C76.1905 88.3723 76.651 88.5333 76.5472 88.8663C76.5264 88.9301 76.4971 88.9861 76.4683 89.0497L76.3958 89.1857L76.3228 89.314L76.2789 89.3941C76.125 89.6509 75.7107 89.4718 75.8001 89.1709C75.8071 89.1472 75.8222 89.1308 75.8289 89.1071L75.8658 89.0508L75.9316 88.9387L75.9894 88.8189L76.054 88.6753ZM74.8406 90.2197C74.8859 90.1788 74.9403 90.1687 74.995 90.1665C75.2533 90.1639 75.36 90.4805 75.1629 90.6371L75.1177 90.6782L74.9882 90.7698L74.8588 90.8612L74.7064 90.9614C74.4234 91.1217 74.1495 90.7412 74.4069 90.5273C74.4603 90.4938 74.5134 90.4524 74.5592 90.4192L74.6813 90.3439L74.7949 90.2531L74.8406 90.2197ZM73.0549 91.1614C73.3406 91.0634 73.5369 91.455 73.2777 91.6297C73.255 91.6462 73.2393 91.6547 73.2166 91.6635L73.0621 91.7171L72.8922 91.771L72.6983 91.8257C72.412 91.9001 72.2157 91.5089 72.4981 91.3328C72.5212 91.3242 72.5368 91.3157 72.5602 91.3147L72.7378 91.2606L72.8926 91.2151L73.0549 91.1614ZM71.0381 91.619C71.342 91.5832 71.4612 92.0089 71.1608 92.1307C71.1454 92.1392 71.1294 92.1398 71.1063 92.1484L70.8411 92.1748L70.5685 92.2093C70.2721 92.2293 70.1537 91.8194 70.4539 91.6974C70.477 91.6885 70.5003 91.6799 70.5237 91.6789L70.7808 91.6529L71.0381 91.619ZM68.9534 91.7586C69.2823 91.7608 69.3254 92.2445 68.9827 92.2898C68.9048 92.2929 68.8187 92.2888 68.7322 92.2923L68.4191 92.2894C68.1449 92.2848 68.0583 91.8888 68.3358 91.776C68.3664 91.7592 68.3975 91.7579 68.4365 91.7563L68.734 91.7598L68.9534 91.7586ZM66.8676 91.6713C67.182 91.7054 67.1855 92.1748 66.8579 92.2039C66.8421 92.2045 66.8345 92.2048 66.8185 92.2055L66.6692 92.1881L66.2843 92.1568C66.0015 92.1291 65.9524 91.7008 66.2554 91.6335C66.2864 91.6246 66.3093 91.6236 66.3414 91.63L66.7105 91.6623L66.8676 91.6713ZM64.7833 91.427C64.901 91.4378 64.9919 91.5439 65.0043 91.6607C65.0189 91.8323 64.8679 91.9715 64.6948 91.9472L64.4664 91.9096L64.1669 91.8591C63.8985 91.8075 63.8683 91.4405 64.1305 91.3518C64.177 91.3344 64.2159 91.3328 64.2633 91.3386L64.5551 91.3894L64.7833 91.427ZM62.7088 91.0416C63.0485 91.1218 62.9437 91.6272 62.5962 91.5551C62.4228 91.5227 62.2491 91.4831 62.0754 91.4431C61.7987 91.3763 61.8059 90.9766 62.0934 90.9257C62.1325 90.9164 62.1636 90.9152 62.1955 90.9294C62.369 90.9695 62.5423 91.0015 62.7088 91.0416ZM60.6688 90.5455C60.9854 90.6343 60.8872 91.108 60.5483 91.0591L60.5249 91.06C60.3509 91.0121 60.1846 90.9643 60.0106 90.9165C59.7095 90.8271 59.7842 90.362 60.1143 90.3957C60.1304 90.4027 60.1459 90.4021 60.154 90.4018C60.3284 90.4576 60.4944 90.4977 60.6688 90.5455ZM58.6406 89.9546C58.9578 90.0589 58.8439 90.5256 58.5049 90.4609C58.4014 90.4336 58.2985 90.3989 58.203 90.3636L57.9734 90.2949C57.6635 90.1821 57.7854 89.7153 58.1168 89.7801L58.1406 89.787C58.3072 89.8427 58.4739 89.8984 58.6406 89.9546ZM56.6477 89.2682C56.918 89.3668 56.8565 89.7844 56.5512 89.7811C56.5202 89.7823 56.4962 89.7754 56.4648 89.769C56.2978 89.7052 56.1304 89.6415 55.9639 89.5779C55.7089 89.4786 55.7486 89.1088 56.0369 89.0659C56.0835 89.064 56.1153 89.0706 56.1553 89.0846C56.3217 89.1484 56.4883 89.2043 56.6477 89.2682ZM54.6827 88.5027C54.9694 88.6164 54.8617 89.0512 54.5389 89.0096C54.5232 89.0025 54.4993 88.9956 54.4832 88.9884C54.3162 88.9246 54.157 88.8528 53.9893 88.7816C53.6944 88.6445 53.8487 88.2078 54.1651 88.2811L54.1971 88.2953C54.3644 88.367 54.5232 88.4309 54.6827 88.5027ZM52.7541 87.6574C52.8734 87.7071 52.9338 87.8458 52.9002 87.9724C52.8511 88.1232 52.6745 88.2007 52.5309 88.1362C52.371 88.0563 52.2113 87.9848 52.0518 87.9051C51.9397 87.8547 51.8801 87.7243 51.9066 87.6057C51.947 87.4395 52.1309 87.354 52.2829 87.4258C52.4426 87.5054 52.5941 87.5778 52.7541 87.6574ZM50.8684 86.724C50.9167 86.7536 50.9653 86.7986 50.9832 86.8524C51.0792 87.0835 50.8372 87.3044 50.6213 87.1959C50.461 87.1086 50.3015 87.0289 50.1491 86.9411C49.8937 86.8106 50.0104 86.4144 50.3093 86.4491C50.3407 86.4557 50.3646 86.4624 50.3963 86.4774C50.5568 86.5644 50.7085 86.6444 50.8684 86.724ZM49.019 85.7112C49.2761 85.8728 49.1196 86.2629 48.8272 86.1964C48.7956 86.19 48.7799 86.1827 48.7478 86.1682L48.4913 86.0222L48.2905 85.8973C48.0253 85.736 48.2049 85.3293 48.506 85.4188C48.5295 85.4257 48.5456 85.4328 48.5616 85.4479L48.7625 85.5649L49.019 85.7112ZM47.2207 84.6099C47.3096 84.6766 47.3604 84.7839 47.3335 84.8872C47.3018 85.0682 47.0865 85.1633 46.9339 85.0599C46.781 84.9644 46.636 84.8605 46.4831 84.765C46.2335 84.5952 46.4203 84.1804 46.7305 84.301C46.7543 84.3079 46.7622 84.3153 46.7785 84.3225C46.9235 84.4262 47.076 84.5215 47.2207 84.6099ZM45.4816 83.4277C45.5782 83.4946 45.6143 83.6183 45.58 83.7292C45.5162 83.8962 45.3073 83.9595 45.1699 83.8478L44.9597 83.6918L44.7419 83.5364C44.5162 83.3654 44.6737 83.0068 44.9654 83.0655C44.9973 83.0798 45.0287 83.0862 45.0614 83.1085L45.2715 83.2723L45.4816 83.4277ZM43.8241 82.133C44.0595 82.3427 43.8242 82.7126 43.5287 82.5755C43.513 82.5685 43.4964 82.5536 43.4808 82.5461L43.2453 82.3442L43.0756 82.2025C42.8481 82.0081 43.068 81.6393 43.3548 81.7604C43.3786 81.7674 43.4028 81.7822 43.4192 81.7973L43.5894 81.939L43.8241 82.133ZM42.2565 80.7409C42.3301 80.816 42.3582 80.9244 42.3153 81.0281C42.2522 81.2027 42.019 81.2514 41.8889 81.1237L41.6848 80.9283L41.5054 80.7478C41.4243 80.6728 41.403 80.5483 41.454 80.4448C41.5337 80.2848 41.7512 80.2446 41.8814 80.3724L42.0532 80.5454L42.2565 80.7409ZM40.8094 79.226C40.9898 79.4302 40.7605 79.7604 40.4893 79.6384C40.4574 79.6241 40.433 79.6014 40.4004 79.5716L40.286 79.443L40.1293 79.2539L40.055 79.1628C39.8897 78.9504 40.1052 78.6597 40.3594 78.7513C40.399 78.7655 40.4395 78.7952 40.4647 78.833L40.5302 78.9088L40.6865 79.0979L40.8094 79.226ZM39.5139 77.5878C39.6974 77.8699 39.3176 78.1517 39.0963 77.9102L39.08 77.8874L38.9548 77.7044L38.7796 77.4375C38.6876 77.2927 38.7509 77.1099 38.9047 77.0489C39.0207 77.0051 39.1552 77.0466 39.2224 77.1534L39.3894 77.4051L39.5139 77.5878ZM38.4394 75.8072C38.4729 75.8609 38.4754 75.9235 38.4624 75.9865C38.3938 76.224 38.0742 76.2607 37.9632 76.0381L37.8948 75.8923L37.7926 75.6849L37.7325 75.5543C37.6029 75.2622 38.0085 75.0267 38.1919 75.3009C38.2002 75.3161 38.2082 75.3237 38.2169 75.3391L38.2686 75.4622L38.3706 75.6538L38.4394 75.8072ZM37.6572 73.89C37.6664 73.9289 37.6683 73.9757 37.6545 74.023C37.5872 74.292 37.235 74.2984 37.1468 74.0436L37.0826 73.8115L37.0188 73.6028L37 73.5172C36.9339 73.2382 37.2947 73.067 37.4684 73.2947C37.4931 73.3251 37.502 73.3558 37.5119 73.3947L37.5301 73.4643L37.5854 73.6657L37.6572 73.89ZM37.2456 71.8633C37.275 72.1988 36.7772 72.2738 36.7162 71.9319C36.705 71.8462 36.7015 71.7602 36.698 71.6742L36.6815 71.4555L36.678 71.3695C36.6665 71.0883 37.0686 70.978 37.1901 71.2707C37.1991 71.3016 37.2077 71.3248 37.209 71.3561L37.2121 71.4342L37.2204 71.6377L37.2456 71.8633ZM37.2799 69.811C37.2308 70.1417 36.7358 70.1071 36.7526 69.7542C36.7572 69.6678 36.7766 69.5732 36.7888 69.4866L36.827 69.2659L36.8398 69.2029C36.8985 68.9107 37.3374 68.9242 37.3656 69.2361C37.3666 69.2595 37.3599 69.2834 37.3608 69.3066L37.3477 69.362L37.309 69.5671L37.2799 69.811ZM37.7622 67.8185C37.6345 68.1448 37.1499 67.9608 37.2689 67.6272L37.3185 67.5001L37.4527 67.1345C37.551 66.8565 37.9848 66.9327 37.9662 67.2464C37.9591 67.2702 37.96 67.2936 37.9533 67.3173L37.8115 67.6832L37.7622 67.8185ZM38.4874 65.8163C38.3813 66.1023 37.9553 66.0179 37.9665 65.7123C37.9732 65.6886 37.9723 65.6652 37.9871 65.6411C38.0428 65.4743 38.0985 65.3076 38.1542 65.1412C38.2596 64.8395 38.7024 64.9464 38.6677 65.2534C38.661 65.2769 38.6616 65.2926 38.6546 65.3089C38.5985 65.4751 38.5431 65.6497 38.4874 65.8163Z" fill="black"/>
<path d="M85.2946 12.4804L77.1843 7.08752C77.0394 6.99149 77.0002 6.79757 77.0963 6.65273C77.1478 6.57238 77.2241 6.53005 77.31 6.51867L106.215 0.0203782C106.385 -0.017905 106.554 0.0848341 106.592 0.255558C106.603 0.333359 106.598 0.404362 106.562 0.46831L97.2474 18.7978C97.1751 18.9496 96.9822 19.0122 96.8301 18.9323C96.8063 18.9254 96.7821 18.9108 96.7661 18.8956L90.2744 14.0398C90.1292 13.9361 90.1055 13.7413 90.2095 13.604C90.2243 13.58 90.2395 13.5636 90.2544 13.5474L99.9084 5.30287L85.6086 12.4994C85.5007 12.55 85.383 12.5395 85.2946 12.4804ZM78.1422 6.97012L85.4881 11.854L101.936 3.57612C102.066 3.50049 102.231 3.52489 102.33 3.64624C102.437 3.77493 102.422 3.9713 102.293 4.08611L90.9597 13.7688L96.8541 18.1793L105.698 0.776991L78.1422 6.97012ZM85.1511 12.2278C85.1441 12.056 85.2791 11.9094 85.4511 11.9024C85.6231 11.8954 85.7695 12.0306 85.7765 12.2024L86.1241 20.7527L90.1874 13.6356L90.2093 13.6034C90.3132 13.4582 90.508 13.4345 90.645 13.5386L93.2285 15.461C93.2527 15.4758 93.2771 15.4985 93.2936 15.5213C93.4085 15.6575 93.3933 15.8537 93.2568 15.9688L86.0766 22.093C86.0238 22.142 85.947 22.1763 85.8686 22.1795C85.6968 22.1865 85.5502 22.0515 85.5432 21.8795L85.1509 12.2278L85.1511 12.2278ZM87.0202 20.4579L92.5509 15.7395L90.5569 14.2549L87.0202 20.4579Z" fill="black"/>
</svg>
