<svg width="34" height="34" viewBox="0 0 34 34" fill="none" xmlns="http://www.w3.org/2000/svg">
<path fill-rule="evenodd" clip-rule="evenodd" d="M6.26817 5.0831C3.72024 7.24016 2.13517 10.364 2.13517 14.2808V17.4404C2.13517 22.7856 3.76544 26.3233 6.27991 28.5378C8.79696 30.7545 12.3183 31.75 16.3204 31.7623H16.4572H17.4485C21.4815 31.7623 25.0317 30.7682 27.5647 28.5446C30.0791 26.3373 31.7085 22.8151 31.7085 17.5022V14.3426C31.7085 10.4258 30.1234 7.302 27.5755 5.14494C25.0151 2.97735 21.4424 1.75528 17.4485 1.75528H16.4572H16.0235V1.69698C12.1798 1.77043 8.74885 2.98297 6.26817 5.0831ZM5.22965 29.7303C8.06389 32.2264 11.8961 33.2891 16.0235 33.3488V33.3514H16.3181L16.3952 33.3515V33.3514H16.4572H17.4485C21.7171 33.3514 25.6942 32.3011 28.6131 29.7388C31.5506 27.1601 33.2976 23.155 33.2976 17.5022V14.3426C33.2976 9.95769 31.5062 6.39056 28.6023 3.93211C25.7108 1.48419 21.7562 0.16618 17.4485 0.16618H16.4572H16.3952V0.104338C12.0875 0.104338 8.13289 1.42235 5.24139 3.87027C2.33745 6.32872 0.546068 9.89585 0.546068 14.2808V17.4404C0.546068 23.1228 2.29224 27.1434 5.22965 29.7303ZM22.4047 10.9972C23.0862 11.6167 23.4579 12.4221 23.5198 13.2894C23.6437 14.3426 23.7676 19.3609 23.4579 20.538C23.0242 22.0248 22.033 22.9541 20.4841 23.2019C19.307 23.3878 14.1029 23.3878 13.0497 23.14C11.5009 22.7683 10.5716 21.777 10.3238 20.2282C10.1379 19.113 10.076 13.7851 10.3858 12.6699C10.8194 11.183 11.8107 10.3157 13.2976 10.0679C14.6605 9.82007 18.3777 9.88202 19.9265 10.0059C20.8558 10.0679 21.7232 10.3157 22.4047 10.9972ZM20.1124 22.0248C21.3515 21.9009 22.0949 21.1575 22.2808 19.9804C22.4666 18.8033 22.4666 14.5285 22.3427 13.3514C22.2188 12.1123 21.4754 11.3689 20.2983 11.183C19.1212 11.0591 14.8464 11.0591 13.6693 11.183C12.4922 11.3069 11.7487 12.0504 11.5629 13.2275C11.377 14.4666 11.439 19.113 11.5629 20.0423C11.6868 21.0336 12.2444 21.6531 13.1736 21.9009C14.1649 22.2107 19.0592 22.1487 20.1124 22.0248ZM13.4215 16.6349C13.4215 14.7144 14.9703 13.1655 16.8908 13.1655C18.8114 13.1655 20.3602 14.7144 20.3602 16.6349C20.3602 18.5555 18.8114 20.1043 16.8908 20.1043C14.9703 20.1043 13.4215 18.5555 13.4215 16.6349ZM14.6605 16.6349C14.6605 17.874 15.6518 18.8652 16.8908 18.8652C18.1299 18.8652 19.1212 17.874 19.1212 16.6349C19.1212 15.3959 18.1299 14.4046 16.8908 14.4046C15.6518 14.4046 14.6605 15.3959 14.6605 16.6349ZM20.4841 13.847C20.9178 13.847 21.2895 13.4753 21.2895 13.0416C21.2895 12.608 20.9797 12.2362 20.4841 12.2362C20.0504 12.2362 19.6787 12.608 19.6787 13.0416C19.6787 13.4753 20.0504 13.847 20.4841 13.847Z" fill="#333333"/>
</svg>
