<svg width="33" height="34" viewBox="0 0 33 34" fill="none" xmlns="http://www.w3.org/2000/svg">
<path fill-rule="evenodd" clip-rule="evenodd" d="M15.9939 1.6934H15.932V1.69344C11.8989 1.69344 8.34871 2.68757 5.81567 4.91117C3.30127 7.11841 1.67189 10.6406 1.67189 15.9535V19.1131C1.67189 23.0299 3.25695 26.1537 5.80489 28.3108C8.35701 30.4714 11.9149 31.6926 15.8933 31.7004H15.9939H16.9852C20.9791 31.7004 24.5519 30.4783 27.1122 28.3107C29.6602 26.1537 31.2452 23.0299 31.2452 19.1131V15.9535C31.2452 10.6406 29.6159 7.11838 27.1015 4.91113C24.5684 2.68753 21.0182 1.6934 16.9852 1.6934H15.9939ZM15.9939 33.2895L15.932 33.2895L15.8918 33.2895H15.5603V33.2863C11.397 33.2126 7.58624 31.901 4.77811 29.5236C1.87416 27.0652 0.0827866 23.498 0.0827866 19.1131V15.9535C0.0827866 10.3007 1.82984 6.29558 4.76732 3.71694C7.60127 1.22919 11.4328 0.166714 15.5603 0.107015V0.1043H15.9939H16.9852C21.2538 0.1043 25.231 1.15462 28.1498 3.7169C31.0873 6.29554 32.8343 10.3007 32.8343 15.9535V19.1131C32.8343 23.498 31.043 27.0651 28.139 29.5236C25.2475 31.9715 21.2929 33.2895 16.9852 33.2895H15.9939ZM17.1711 18.1838C17.1711 17.1306 17.3569 16.1393 18.658 16.1393C19.897 16.1393 19.897 17.3164 19.8351 18.1218V21.9629H22.2512V17.6262C22.2512 15.5198 21.8176 13.909 19.3394 13.909C18.1623 13.909 17.3569 14.5905 17.0472 15.21V14.1568H14.693V22.0868H17.1711V18.1838ZM13.2061 14.1568H10.7279V22.0249H13.2061V14.1568ZM13.3919 11.6788C13.3919 10.8734 12.7724 10.2539 11.967 10.2539C11.1616 10.2539 10.5421 10.8734 10.5421 11.6788C10.5421 12.4842 11.1616 13.1037 11.967 13.1037C12.7724 13.1037 13.3919 12.4842 13.3919 11.6788Z" fill="#333333"/>
</svg>
