<svg width="146" height="53" viewBox="0 0 146 53" fill="none" xmlns="http://www.w3.org/2000/svg">
<path d="M56.4538 6.1575C56.5365 6.13469 56.581 6.26014 56.5026 6.3012C37.9293 16.5158 36.0196 44.0139 35.8649 52.0227H35.8521C35.6974 44.0139 33.7877 16.5158 15.2144 6.3012C15.1381 6.26014 15.1805 6.13469 15.2632 6.1575C17.5968 6.79391 26.0388 9.43081 31.6322 15.5486C33.9531 18.0874 37.7597 18.0874 40.0806 15.5486C45.674 9.4331 54.116 6.79391 56.4496 6.1575H56.4538Z" fill="#6A1B9A"/>
<path d="M35.8593 14.8664C37.9207 14.8664 39.5914 13.0679 39.591 10.8494C39.5906 8.63083 37.9193 6.83234 35.8579 6.83234C33.7966 6.83234 32.1259 8.63083 32.1262 10.8494C32.1266 13.0679 33.798 14.8664 35.8593 14.8664Z" fill="#AF52DE"/>
<path d="M71.2714 32.0611C71.4282 32.125 71.3752 32.3736 71.2078 32.3599C62.7848 31.7098 55.9197 34.1962 50.604 37.6086C50.4917 37.6816 50.3793 37.7546 50.267 37.8276C49.025 38.6443 47.8698 39.5088 46.8016 40.3938C45.2247 41.7009 43.8343 43.049 42.6325 44.3469C41.0196 46.0896 39.7479 47.7388 38.811 49.0687C38.7284 49.1827 38.6499 49.2968 38.5758 49.4063C37.9611 50.2982 37.5118 51.0213 37.2278 51.5026C37.143 51.644 36.9395 51.5619 36.9628 51.3976C37.1069 50.3529 37.2553 49.3378 37.41 48.3479C37.4376 48.1745 37.4651 48.0011 37.4927 47.8278C38.349 42.4627 39.3579 37.9234 40.4537 34.0821C40.5024 33.9111 40.5512 33.74 40.5999 33.5735C45.0148 18.4364 50.7354 14.3989 53.2428 13.3291C53.4039 13.2606 53.5205 13.4979 53.3763 13.6028C48.2768 17.2616 45.2565 29.5451 54.5145 29.1642C62.4415 28.838 68.9632 31.1259 71.2693 32.0611H71.2714Z" fill="#6A1B9A"/>
<path d="M58.926 23.1686C59.0723 20.9557 57.524 19.0342 55.4679 18.8767C53.4117 18.7193 51.6262 20.3855 51.4799 22.5984C51.3336 24.8113 52.8818 26.7329 54.938 26.8903C56.9942 27.0478 58.7797 25.3815 58.926 23.1686Z" fill="#79D077"/>
<path fill-rule="evenodd" clip-rule="evenodd" d="M58.6446 42.381C57.9134 48.8911 52.3899 53.6175 46.3323 52.9126C44.1111 52.6549 42.1166 51.7151 40.5037 50.3122C40.3341 50.1662 40.3108 49.8993 40.4507 49.7191C40.7559 49.3291 41.1438 48.85 41.6122 48.298C41.7478 48.1361 41.9789 48.1155 42.1378 48.2524C43.3629 49.3017 44.8678 50.0065 46.5379 50.2141C51.2517 50.8004 55.5798 47.121 56.1478 42.0525C56.3534 40.2048 56.0418 38.4142 55.3382 36.8563C55.2491 36.6601 55.317 36.4251 55.4908 36.3156C55.9931 36.0031 56.506 35.6975 57.0295 35.3964C57.2224 35.2869 57.4619 35.369 57.5594 35.5789C58.5026 37.6158 58.918 39.9585 58.6467 42.3833L58.6446 42.381Z" fill="#6A1B9A"/>
<path fill-rule="evenodd" clip-rule="evenodd" d="M53.4779 42.9165C53.0794 45.6606 50.7437 47.6451 48.1706 47.4193C46.8141 47.3007 45.6378 46.6118 44.8175 45.5967C44.6819 45.4302 44.6989 45.177 44.8472 45.0264C45.9515 43.8996 47.2592 42.661 48.7598 41.3973C49.7708 40.5464 50.8688 39.6819 52.0536 38.8334C52.2231 38.7102 52.4563 38.7513 52.5771 38.9292C53.3274 40.0332 53.6898 41.4475 53.4779 42.9165Z" fill="#FF9500"/>
<path d="M0.0525445 32.1006C-0.0364751 32.1371 -0.00468237 32.2785 0.0906957 32.2717C8.70652 31.503 15.7094 34.0167 21.1142 37.4862C21.2265 37.5592 21.3388 37.6322 21.4512 37.7052C22.6932 38.5218 23.8483 39.3863 24.9166 40.2714C26.4935 41.5784 27.8839 42.9265 29.0856 44.2244C30.6986 45.9672 31.9703 47.6164 32.9071 48.9462C32.9898 49.0603 33.0682 49.1743 33.1424 49.2838C33.8842 50.3605 34.3865 51.1953 34.6451 51.647C34.6918 51.7291 34.8104 51.6812 34.7956 51.5854C34.6388 50.4312 34.4756 49.3112 34.306 48.2231C34.2785 48.0498 34.2509 47.8764 34.2233 47.703C33.3671 42.338 32.3582 37.7987 31.2624 33.9574C31.2136 33.7863 31.1649 33.6152 31.1161 33.4487C26.3282 17.0297 20.0035 13.6697 17.9094 12.9922C17.8141 12.9625 17.7611 13.104 17.848 13.1541C23.2379 16.3408 26.7563 29.4318 17.2036 29.0371C8.76163 28.6881 1.9156 31.3068 0.0525445 32.0983V32.1006Z" fill="#6A1B9A"/>
<path d="M16.7882 26.762C18.8444 26.6045 20.3927 24.683 20.2464 22.4701C20.1001 20.2572 18.3146 18.5909 16.2584 18.7484C14.2022 18.9058 12.654 20.8274 12.8003 23.0403C12.9466 25.2532 14.7321 26.9194 16.7882 26.762Z" fill="#FF7575"/>
<path fill-rule="evenodd" clip-rule="evenodd" d="M13.0744 42.2442C13.8057 48.7543 19.3291 53.4807 25.3867 52.7758C27.6079 52.5181 29.6024 51.5783 31.2153 50.1754C31.3849 50.0294 31.4082 49.7625 31.2683 49.5823C30.9631 49.1923 30.5752 48.7133 30.1068 48.1612C29.9712 47.9993 29.7402 47.9788 29.5812 48.1156C28.3561 49.1649 26.8513 49.8698 25.1811 50.0773C20.4673 50.6636 16.1392 46.9842 15.5712 41.9157C15.3656 40.0681 15.6772 38.2774 16.3809 36.7195C16.4699 36.5233 16.4021 36.2883 16.2283 36.1789C15.7259 35.8663 15.213 35.5607 14.6895 35.2596C14.4966 35.1501 14.2571 35.2322 14.1596 35.4421C13.2164 37.4791 12.801 39.8217 13.0723 42.2465L13.0744 42.2442Z" fill="#6A1B9A"/>
<path fill-rule="evenodd" clip-rule="evenodd" d="M18.2443 42.7778C18.6428 45.5219 20.9785 47.5064 23.5516 47.2806C24.9081 47.1619 26.0844 46.4731 26.9046 45.458C27.0403 45.2915 27.0233 45.0383 26.875 44.8877C25.7707 43.7609 24.463 42.5223 22.9623 41.2586C21.9513 40.4077 20.8534 39.5432 19.6686 38.6947C19.4991 38.5715 19.2659 38.6125 19.1451 38.7905C18.3948 39.8945 18.0324 41.3087 18.2443 42.7778Z" fill="#FF9500"/>
<path d="M40.0934 8.37606H40.0892C39.3368 6.63333 37.7026 5.42209 35.7993 5.42209C33.896 5.42209 32.2597 6.63333 31.5094 8.37606H31.5052V5.39928L28.0949 3.45582V7.37696C28.4425 7.48416 28.2962 7.86966 28.3768 8.23919C28.4573 8.60873 28.5315 8.70681 28.5315 8.70681C28.5315 8.70681 28.3026 8.8642 28.0991 8.57451C27.8956 8.28482 27.6583 8.5038 27.6583 8.5038C27.6498 7.45679 27.9529 7.36783 27.9529 7.36783V3.37142L27.4294 3.0726L35.7993 1.52588e-05L44.1714 3.07488L40.0934 5.397V8.37378V8.37606Z" fill="#6A1B9A"/>
<path d="M77.0863 11.8757H79.4051C79.5762 14.3147 80.9712 15.3506 83.44 15.3506C85.6931 15.3506 87.0881 14.3147 87.0881 12.3585C87.0881 10.9303 86.3144 10.01 84.4904 9.68814L81.1002 9.0897C78.7603 8.69997 77.3653 7.06558 77.3653 4.69447C77.3653 1.72743 79.6184 1.52588e-05 83.161 1.52588e-05C86.7036 1.52588e-05 88.5699 1.6344 88.8911 4.76487H86.5723C86.4012 2.96957 85.1562 2.02665 83.0954 2.02665C80.8845 2.02665 79.6184 2.9243 79.6184 4.55869C79.6184 5.91648 80.4765 6.74625 82.2795 7.0681L85.5196 7.6439C87.9673 8.05878 89.4467 9.69317 89.4045 12.3157C89.3623 15.6298 87.0225 17.3798 83.3744 17.3798C79.2761 17.3773 77.2153 15.1445 77.0863 11.8757Z" fill="#6A1B9A"/>
<path d="M91.9543 4.92481H94.0779V6.62423H94.12C94.9568 5.27334 96.1803 4.57373 97.7459 4.57373C100.685 4.57373 102.574 7.01856 102.574 10.8855C102.574 14.7525 100.709 17.1973 97.5748 17.1973C96.1803 17.1973 94.9568 16.5689 94.1411 15.4037H94.0989V21.0388H91.9543V4.92481ZM100.385 10.8855C100.385 8.11504 99.2061 6.41307 97.2748 6.41307C95.1302 6.41307 93.9911 8.25242 93.9911 10.8855C93.9911 13.5186 95.1279 15.3579 97.2303 15.3579C99.1827 15.3579 100.385 13.6814 100.385 10.8855Z" fill="#6A1B9A"/>
<path d="M104.709 20.9274V19.1343H104.772C105.093 19.1779 105.393 19.1996 105.672 19.1996C106.767 19.1996 107.324 18.8221 107.753 17.7162L108.096 16.8088L103.849 5.48843H106.122L108.353 11.9786L109.211 14.4372H109.253L110.069 12.044L112.258 5.48843H114.468L110.027 17.6485C109.103 20.2184 108.074 21.0388 106.122 21.0388C105.628 21.0388 105.156 20.9952 104.706 20.9274H104.709Z" fill="#6A1B9A"/>
<path d="M77.0864 33.3739C77.0864 27.2991 80.3339 22.8683 85.7889 22.8683C90.1265 22.8683 93.1197 25.6824 93.5762 29.9461H90.8623C90.3559 27.2142 88.6549 25.3756 85.7889 25.3756C81.8055 25.3756 79.8525 28.7186 79.8525 33.3739C79.8525 38.0292 81.8055 41.3997 85.7889 41.3997C88.6549 41.3997 90.508 39.5336 90.9395 36.3278H93.6534C93.2469 40.9831 90.1265 43.907 85.7889 43.907C80.3339 43.907 77.0864 39.4488 77.0864 33.3714V33.3739Z" fill="#AF52DE"/>
<path d="M97.4768 23.3255H100.026V42.9921H97.4768V23.3255Z" fill="#AF52DE"/>
<path d="M103.001 39.7058C103.001 37.1703 104.307 35.5274 108.851 35.1933L112.088 34.9415V33.9942C112.088 32.072 111.109 30.9302 109.178 30.9302C107.709 30.9302 106.294 31.5983 106.184 33.326H103.627C103.71 30.7357 105.641 28.8136 109.341 28.8136C113.04 28.8136 114.782 30.7632 114.782 34.6075V40.6781C114.782 41.2914 114.999 41.5681 115.488 41.5681C115.705 41.5681 115.924 41.5407 116.114 41.5132H116.168V43.6573C115.705 43.7695 115.269 43.8243 114.835 43.8243C113.557 43.8243 112.441 43.2684 112.388 41.5681V41.4833H112.305C111.353 43.0141 109.774 43.9066 107.707 43.9066C105.123 43.9066 102.999 42.4855 102.999 39.7008L103.001 39.7058ZM112.115 37.8135V36.8388L108.905 37.118C106.294 37.3124 105.695 38.2049 105.695 39.6235C105.695 40.9598 106.62 41.8224 108.252 41.8224C110.563 41.8224 112.115 40.1795 112.115 37.811V37.8135Z" fill="#AF52DE"/>
<path d="M118.291 38.9496H120.755C120.908 40.872 121.924 41.7896 123.953 41.7896C125.781 41.7896 126.822 41.0092 126.822 39.5904C126.822 38.3935 126.111 37.6679 124.588 37.446L122.049 37.057C119.789 36.7229 118.519 35.329 118.519 33.1024C118.519 30.5665 120.576 28.8136 123.597 28.8136C126.974 28.8136 128.802 30.569 128.879 33.242H126.442C126.315 31.5439 125.147 30.9031 123.599 30.9031C121.796 30.9031 120.958 31.711 120.958 32.9079C120.958 33.9103 121.464 34.6633 123.217 34.9401L125.731 35.329C128.068 35.6906 129.336 37.1667 129.336 39.4233C129.336 42.2085 127.279 43.9066 123.928 43.9066C120.578 43.9066 118.444 42.1512 118.291 38.9496Z" fill="#AF52DE"/>
<path d="M132.31 38.9496H134.868C135.027 40.872 136.082 41.7896 138.19 41.7896C140.087 41.7896 141.168 41.0092 141.168 39.5904C141.168 38.3935 140.43 37.6679 138.848 37.446L136.212 37.057C133.865 36.7229 132.546 35.329 132.546 33.1024C132.546 30.5665 134.682 28.8136 137.819 28.8136C141.327 28.8136 143.224 30.569 143.305 33.242H140.774C140.642 31.5439 139.429 30.9031 137.821 30.9031C135.949 30.9031 135.078 31.711 135.078 32.9079C135.078 33.9103 135.605 34.6633 137.425 34.9401L140.035 35.329C142.462 35.6906 143.779 37.1667 143.779 39.4233C143.779 42.2085 141.643 43.9066 138.164 43.9066C134.684 43.9066 132.468 42.1512 132.31 38.9496Z" fill="#AF52DE"/>
<path d="M77.9364 52.1393L77.1652 49.1457H77.6065L78.1482 51.464H78.174L78.7374 49.1457H79.1745L79.738 51.4654H79.7638L80.3041 49.1457H80.7467L79.9742 52.1393H79.552L78.9668 49.897H78.9451L78.36 52.1393H77.9364Z" fill="#595959"/>
<path d="M81.1292 52.1393V49.1457H81.5487V50.4466H82.9349V49.1457H83.3558V52.1393H82.9349V50.834H81.5487V52.1393H81.1292Z" fill="#595959"/>
<path d="M83.9667 52.1393V49.1457H85.71V49.5345H84.3862V50.4466H85.619V50.834H84.3862V51.7505H85.7262V52.1393H83.9667Z" fill="#595959"/>
<path d="M86.2703 52.1393V49.1457H87.2614C87.4768 49.1457 87.6556 49.1856 87.7977 49.2655C87.9407 49.3454 88.0475 49.456 88.1181 49.5973C88.1887 49.7377 88.224 49.8999 88.224 50.0841C88.224 50.2673 88.1882 50.4286 88.1167 50.5679C88.0461 50.7063 87.9393 50.814 87.7963 50.891C87.6542 50.968 87.4755 51.0065 87.2601 51.0065H86.5093V50.6176H87.222C87.3578 50.6176 87.4682 50.5967 87.5533 50.5548C87.6393 50.5129 87.7022 50.452 87.742 50.3721C87.7818 50.2921 87.8018 50.1962 87.8018 50.0841C87.8018 49.9711 87.7814 49.8731 87.7407 49.7903C87.7008 49.7074 87.6379 49.6441 87.552 49.6003C87.4669 49.5554 87.3551 49.533 87.2166 49.533H86.6898V52.1393H86.2703ZM87.6429 50.7887L88.3299 52.1393H87.852L87.1786 50.7887H87.6429Z" fill="#595959"/>
<path d="M88.7345 52.1393V49.1457H90.4777V49.5345H89.154V50.4466H90.3867V50.834H89.154V51.7505H90.494V52.1393H88.7345Z" fill="#595959"/>
<path d="M92.0499 52.1393V49.1457H92.4694V51.7505H93.7293V52.1393H92.0499Z" fill="#595959"/>
<path d="M94.2079 52.1393V49.1457H95.9511V49.5345H94.6274V50.4466H95.8601V50.834H94.6274V51.7505H95.9674V52.1393H94.2079Z" fill="#595959"/>
<path d="M96.7463 52.1393H96.301L97.3016 49.1457H97.7863L98.7869 52.1393H98.3416L97.5555 49.6894H97.5338L96.7463 52.1393ZM96.821 50.967H98.2655V51.347H96.821V50.967Z" fill="#595959"/>
<path d="M99.1884 52.1393V49.1457H100.18C100.395 49.1457 100.574 49.1856 100.716 49.2655C100.859 49.3454 100.966 49.456 101.036 49.5973C101.107 49.7377 101.142 49.8999 101.142 50.0841C101.142 50.2673 101.106 50.4286 101.035 50.5679C100.964 50.7063 100.857 50.814 100.714 50.891C100.572 50.968 100.394 51.0065 100.178 51.0065H99.4274V50.6176H100.14C100.276 50.6176 100.386 50.5967 100.471 50.5548C100.557 50.5129 100.62 50.452 100.66 50.3721C100.7 50.2921 100.72 50.1962 100.72 50.0841C100.72 49.9711 100.699 49.8731 100.659 49.7903C100.619 49.7074 100.556 49.6441 100.47 49.6003C100.385 49.5554 100.273 49.533 100.135 49.533H99.6079V52.1393H99.1884ZM100.561 50.7887L101.248 52.1393H100.77L100.097 50.7887H100.561Z" fill="#595959"/>
<path d="M103.897 49.1457V52.1393H103.511L102.098 49.9438H102.072V52.1393H101.653V49.1457H102.041L103.456 51.3441H103.481V49.1457H103.897Z" fill="#595959"/>
<path d="M104.928 49.1457V52.1393H104.509V49.1457H104.928Z" fill="#595959"/>
<path d="M107.783 49.1457V52.1393H107.398L105.984 49.9438H105.959V52.1393H105.539V49.1457H105.927L107.342 51.3441H107.368V49.1457H107.783Z" fill="#595959"/>
<path d="M110.277 50.0914C110.251 50.0027 110.216 49.9233 110.171 49.8531C110.128 49.782 110.076 49.7216 110.015 49.6719C109.954 49.6212 109.885 49.5827 109.807 49.5564C109.73 49.5301 109.646 49.5169 109.553 49.5169C109.397 49.5169 109.256 49.5603 109.13 49.647C109.004 49.7338 108.904 49.8609 108.831 50.0285C108.759 50.1952 108.723 50.3993 108.723 50.641C108.723 50.8837 108.759 51.0888 108.833 51.2564C108.906 51.424 109.006 51.5512 109.134 51.6379C109.262 51.7247 109.407 51.768 109.57 51.768C109.721 51.768 109.853 51.7349 109.965 51.6686C110.078 51.6024 110.165 51.5088 110.227 51.388C110.289 51.2662 110.321 51.1229 110.321 50.9582L110.429 50.9801H109.634V50.6074H110.726V50.948C110.726 51.1994 110.677 51.4177 110.577 51.6028C110.478 51.787 110.342 51.9293 110.167 52.0297C109.993 52.13 109.794 52.1802 109.57 52.1802C109.318 52.1802 109.097 52.1179 108.907 51.9931C108.718 51.8684 108.57 51.6915 108.465 51.4625C108.359 51.2325 108.306 50.9597 108.306 50.6439C108.306 50.4052 108.337 50.1908 108.398 50.0008C108.46 49.8107 108.546 49.6495 108.657 49.5169C108.77 49.3834 108.901 49.2816 109.052 49.2114C109.205 49.1403 109.371 49.1047 109.551 49.1047C109.701 49.1047 109.841 49.1286 109.97 49.1764C110.101 49.2241 110.216 49.2918 110.318 49.3795C110.42 49.4672 110.505 49.5715 110.572 49.6923C110.639 49.8122 110.684 49.9452 110.707 50.0914H110.277Z" fill="#595959"/>
<path d="M112.271 49.1457H112.78L113.665 51.4727H113.698L114.583 49.1457H115.092V52.1393H114.693V49.973H114.667L113.847 52.1349H113.516L112.696 49.9715H112.67V52.1393H112.271V49.1457Z" fill="#595959"/>
<path d="M115.702 52.1393V49.1457H117.445V49.5345H116.121V50.4466H117.354V50.834H116.121V51.7505H117.461V52.1393H115.702Z" fill="#595959"/>
<path d="M118.006 52.1393V49.1457H119.749V49.5345H118.425V50.4466H119.658V50.834H118.425V51.7505H119.765V52.1393H118.006Z" fill="#595959"/>
<path d="M120.172 49.5345V49.1457H122.324V49.5345H121.456V52.1393H121.038V49.5345H120.172Z" fill="#595959"/>
<path d="M124.316 49.9321C124.301 49.7937 124.242 49.6865 124.137 49.6105C124.032 49.5335 123.9 49.495 123.74 49.495C123.626 49.495 123.528 49.5145 123.444 49.5535C123.361 49.5915 123.296 49.6441 123.25 49.7113C123.205 49.7776 123.182 49.8531 123.182 49.9379C123.182 50.0091 123.198 50.0704 123.228 50.1221C123.26 50.1737 123.301 50.2171 123.352 50.2522C123.404 50.2863 123.459 50.315 123.518 50.3384C123.576 50.3608 123.633 50.3794 123.687 50.394L123.959 50.47C124.048 50.4934 124.138 50.5251 124.232 50.565C124.325 50.605 124.411 50.6576 124.491 50.7229C124.571 50.7882 124.635 50.869 124.684 50.9655C124.734 51.062 124.758 51.1775 124.758 51.312C124.758 51.4815 124.718 51.6321 124.636 51.7636C124.556 51.8952 124.439 51.999 124.285 52.075C124.132 52.151 123.947 52.189 123.729 52.189C123.521 52.189 123.341 52.1534 123.189 52.0823C123.037 52.0112 122.918 51.9103 122.832 51.7797C122.746 51.6482 122.698 51.4922 122.689 51.312H123.11C123.118 51.4201 123.151 51.5103 123.208 51.5824C123.266 51.6535 123.34 51.7066 123.429 51.7417C123.52 51.7758 123.619 51.7929 123.727 51.7929C123.845 51.7929 123.951 51.7729 124.043 51.7329C124.136 51.692 124.21 51.6355 124.263 51.5634C124.316 51.4903 124.343 51.405 124.343 51.3076C124.343 51.2189 124.32 51.1463 124.272 51.0898C124.226 51.0332 124.163 50.9865 124.084 50.9494C124.005 50.9124 123.916 50.8798 123.816 50.8515L123.488 50.755C123.265 50.6897 123.089 50.5938 122.958 50.4671C122.829 50.3404 122.764 50.1728 122.764 49.9642C122.764 49.7917 122.808 49.6412 122.894 49.5126C122.981 49.3839 123.099 49.284 123.247 49.2129C123.396 49.1408 123.563 49.1047 123.75 49.1047C123.938 49.1047 124.104 49.1403 124.248 49.2114C124.393 49.2826 124.507 49.3805 124.59 49.5052C124.673 49.629 124.717 49.7713 124.72 49.9321H124.316Z" fill="#595959"/>
<path d="M126.272 52.1393V49.1457H127.263C127.479 49.1457 127.658 49.188 127.8 49.2728C127.942 49.3576 128.049 49.4736 128.119 49.6207C128.19 49.7669 128.225 49.9316 128.225 50.1148C128.225 50.299 128.19 50.4646 128.118 50.6118C128.047 50.758 127.941 50.8739 127.798 50.9597C127.655 51.0445 127.477 51.0868 127.261 51.0868H126.58V50.7039H127.223C127.36 50.7039 127.471 50.6785 127.556 50.6279C127.641 50.5762 127.703 50.506 127.743 50.4174C127.783 50.3287 127.803 50.2278 127.803 50.1148C127.803 50.0017 127.783 49.9014 127.743 49.8137C127.703 49.726 127.641 49.6573 127.555 49.6076C127.469 49.5579 127.357 49.533 127.218 49.533H126.691V52.1393H126.272Z" fill="#595959"/>
<path d="M128.717 52.1393V49.1457H129.708C129.924 49.1457 130.102 49.1856 130.244 49.2655C130.387 49.3454 130.494 49.456 130.565 49.5973C130.635 49.7377 130.671 49.8999 130.671 50.0841C130.671 50.2673 130.635 50.4286 130.563 50.5679C130.493 50.7063 130.386 50.814 130.243 50.891C130.101 50.968 129.922 51.0065 129.707 51.0065H128.956V50.6176H129.669C129.805 50.6176 129.915 50.5967 130 50.5548C130.086 50.5129 130.149 50.452 130.189 50.3721C130.229 50.2921 130.249 50.1962 130.249 50.0841C130.249 49.9711 130.228 49.8731 130.187 49.7903C130.148 49.7074 130.085 49.6441 129.999 49.6003C129.914 49.5554 129.802 49.533 129.663 49.533H129.137V52.1393H128.717ZM130.09 50.7887L130.777 52.1393H130.299L129.625 50.7887H130.09Z" fill="#595959"/>
<path d="M131.181 52.1393V49.1457H132.924V49.5345H131.601V50.4466H132.833V50.834H131.601V51.7505H132.941V52.1393H131.181Z" fill="#595959"/>
<path d="M135.794 50.1192H135.371C135.354 50.0217 135.324 49.936 135.28 49.8619C135.235 49.7878 135.181 49.725 135.117 49.6733C135.052 49.6217 134.98 49.5827 134.901 49.5564C134.822 49.5301 134.738 49.5169 134.65 49.5169C134.489 49.5169 134.346 49.5603 134.219 49.647C134.093 49.7338 133.994 49.8609 133.921 50.0285C133.848 50.1962 133.812 50.4008 133.812 50.6425C133.812 50.8861 133.848 51.0917 133.921 51.2593C133.994 51.4269 134.094 51.5536 134.221 51.6394C134.347 51.7251 134.49 51.768 134.648 51.768C134.736 51.768 134.819 51.7553 134.898 51.73C134.978 51.7037 135.05 51.6652 135.114 51.6145C135.178 51.5639 135.233 51.502 135.277 51.4289C135.322 51.3548 135.353 51.2701 135.371 51.1746L135.794 51.176C135.772 51.3232 135.728 51.4586 135.662 51.5824C135.598 51.7052 135.515 51.8114 135.414 51.901C135.314 51.9897 135.199 52.0584 135.069 52.1071C134.94 52.1559 134.799 52.1802 134.646 52.1802C134.405 52.1802 134.19 52.1188 134.002 51.996C133.814 51.8723 133.665 51.6954 133.557 51.4654C133.449 51.2355 133.395 50.9611 133.395 50.6425C133.395 50.3228 133.45 50.0485 133.558 49.8195C133.667 49.5895 133.815 49.4132 134.003 49.2904C134.192 49.1666 134.406 49.1047 134.646 49.1047C134.793 49.1047 134.931 49.1276 135.058 49.1734C135.187 49.2183 135.302 49.2845 135.405 49.3722C135.507 49.459 135.591 49.5652 135.658 49.6909C135.725 49.8156 135.771 49.9584 135.794 50.1192Z" fill="#595959"/>
<path d="M136.716 49.1457V52.1393H136.296V49.1457H136.716Z" fill="#595959"/>
<path d="M138.843 49.9321C138.829 49.7937 138.769 49.6865 138.664 49.6105C138.559 49.5335 138.427 49.495 138.267 49.495C138.153 49.495 138.055 49.5145 137.972 49.5535C137.888 49.5915 137.824 49.6441 137.777 49.7113C137.732 49.7776 137.709 49.8531 137.709 49.9379C137.709 50.0091 137.725 50.0704 137.756 50.1221C137.787 50.1737 137.829 50.2171 137.879 50.2522C137.931 50.2863 137.986 50.315 138.045 50.3384C138.104 50.3608 138.16 50.3794 138.215 50.394L138.486 50.47C138.575 50.4934 138.666 50.5251 138.759 50.565C138.852 50.605 138.939 50.6576 139.018 50.7229C139.098 50.7882 139.162 50.869 139.211 50.9655C139.261 51.062 139.286 51.1775 139.286 51.312C139.286 51.4815 139.245 51.6321 139.164 51.7636C139.083 51.8952 138.966 51.999 138.812 52.075C138.659 52.151 138.474 52.189 138.257 52.189C138.048 52.189 137.868 52.1534 137.716 52.0823C137.564 52.0112 137.445 51.9103 137.359 51.7797C137.273 51.6482 137.226 51.4922 137.217 51.312H137.638C137.646 51.4201 137.678 51.5103 137.735 51.5824C137.793 51.6535 137.867 51.7066 137.957 51.7417C138.047 51.7758 138.146 51.7929 138.254 51.7929C138.372 51.7929 138.478 51.7729 138.57 51.7329C138.663 51.692 138.737 51.6355 138.79 51.5634C138.844 51.4903 138.87 51.405 138.87 51.3076C138.87 51.2189 138.847 51.1463 138.8 51.0898C138.754 51.0332 138.691 50.9865 138.611 50.9494C138.532 50.9124 138.443 50.8798 138.344 50.8515L138.015 50.755C137.792 50.6897 137.616 50.5938 137.485 50.4671C137.356 50.3404 137.291 50.1728 137.291 49.9642C137.291 49.7917 137.335 49.6412 137.422 49.5126C137.509 49.3839 137.626 49.284 137.775 49.2129C137.923 49.1408 138.091 49.1047 138.277 49.1047C138.465 49.1047 138.631 49.1403 138.775 49.2114C138.92 49.2826 139.034 49.3805 139.117 49.5052C139.201 49.629 139.244 49.7713 139.248 49.9321H138.843Z" fill="#595959"/>
<path d="M140.207 49.1457V52.1393H139.787V49.1457H140.207Z" fill="#595959"/>
<path d="M143.233 50.6425C143.233 50.9621 143.178 51.2369 143.07 51.4669C142.961 51.6959 142.812 51.8723 142.623 51.996C142.435 52.1188 142.221 52.1802 141.981 52.1802C141.74 52.1802 141.525 52.1188 141.336 51.996C141.148 51.8723 140.999 51.6954 140.891 51.4654C140.782 51.2355 140.728 50.9611 140.728 50.6425C140.728 50.3228 140.782 50.0485 140.891 49.8195C140.999 49.5895 141.148 49.4132 141.336 49.2904C141.525 49.1666 141.74 49.1047 141.981 49.1047C142.221 49.1047 142.435 49.1666 142.623 49.2904C142.812 49.4132 142.961 49.5895 143.07 49.8195C143.178 50.0485 143.233 50.3228 143.233 50.6425ZM142.817 50.6425C142.817 50.3989 142.781 50.1937 142.707 50.0271C142.635 49.8595 142.535 49.7328 142.409 49.647C142.283 49.5603 142.14 49.5169 141.981 49.5169C141.821 49.5169 141.678 49.5603 141.552 49.647C141.426 49.7328 141.327 49.8595 141.253 50.0271C141.181 50.1937 141.145 50.3989 141.145 50.6425C141.145 50.8861 141.181 51.0917 141.253 51.2593C141.327 51.426 141.426 51.5527 141.552 51.6394C141.678 51.7251 141.821 51.768 141.981 51.768C142.14 51.768 142.283 51.7251 142.409 51.6394C142.535 51.5527 142.635 51.426 142.707 51.2593C142.781 51.0917 142.817 50.8861 142.817 50.6425Z" fill="#595959"/>
<path d="M146 49.1457V52.1393H145.614L144.201 49.9438H144.175V52.1393H143.756V49.1457H144.144L145.559 51.3441H145.585V49.1457H146Z" fill="#595959"/>
</svg>
