<svg width="34" height="34" viewBox="0 0 34 34" fill="none" xmlns="http://www.w3.org/2000/svg">
<path fill-rule="evenodd" clip-rule="evenodd" d="M6.03652 5.0831C3.48859 7.24016 1.90352 10.364 1.90352 14.2808V17.4404C1.90352 22.7856 3.53379 26.3233 6.04826 28.5378C8.56532 30.7545 12.0866 31.75 16.0887 31.7623H16.2255H17.2168C21.2499 31.7623 24.8 30.7682 27.3331 28.5446C29.8475 26.3373 31.4769 22.8151 31.4769 17.5022V14.3426C31.4769 10.4258 29.8918 7.302 27.3439 5.14494C24.7835 2.97735 21.2108 1.75528 17.2168 1.75528H16.2255H15.7919V1.69698C11.9482 1.77043 8.51721 2.98298 6.03652 5.0831ZM4.998 29.7303C7.83224 32.2264 11.6644 33.2891 15.7919 33.3488V33.3514H16.0865L16.1636 33.3515V33.3514H16.2255H17.2168C21.4855 33.3514 25.4626 32.3011 28.3814 29.7388C31.3189 27.1601 33.066 23.155 33.066 17.5022V14.3426C33.066 9.95769 31.2746 6.39056 28.3706 3.93211C25.4791 1.48419 21.5246 0.16618 17.2168 0.16618H16.2255H16.1636V0.104338C11.8558 0.104338 7.90124 1.42235 5.00975 3.87027C2.1058 6.32872 0.314423 9.89585 0.314423 14.2808V17.4404C0.314423 23.1228 2.0606 27.1434 4.998 29.7303ZM21.6154 14.0949L21.6773 14.0329C21.6887 14.0235 21.6999 14.0141 21.7111 14.0048C22.0677 13.7079 22.3607 13.464 22.4208 13.1036C22.4827 13.0417 22.5292 12.9797 22.5757 12.9178C22.6221 12.8558 22.6686 12.7938 22.7305 12.7319C22.2969 12.9177 21.8012 13.0417 21.3056 13.1036C21.8632 12.7319 22.2349 12.2982 22.4208 11.6787H22.3588C21.9251 11.9265 21.3676 12.1124 20.8719 12.2363C20.81 12.2363 20.81 12.2363 20.748 12.1743C20.1285 11.5548 19.3851 11.307 18.5177 11.4309C17.7743 11.5548 17.2167 11.9885 16.783 12.608C16.4733 13.1036 16.3494 13.6612 16.4113 14.2807C16.4733 14.4046 16.4733 14.4666 16.4733 14.5905C14.3669 14.4666 12.5702 13.5373 11.2073 11.9265C10.8975 12.4841 10.8355 13.1036 10.9594 13.7851C11.0833 14.4046 11.4551 14.9622 12.0126 15.3339C11.6409 15.3339 11.2692 15.21 10.8975 15.0242C10.8975 15.5198 11.0214 15.9535 11.2692 16.3871C11.6409 17.0067 12.1985 17.3784 12.9419 17.5642H12.88C12.5083 17.6881 12.1365 17.6881 11.7648 17.6262C12.0126 18.4316 12.818 19.3609 14.181 19.4228C13.8093 19.7326 13.3756 19.9804 12.9419 20.1663C12.1365 20.538 11.2692 20.6619 10.4019 20.538L10.4638 20.5999C11.7029 21.4053 13.0658 21.777 14.5527 21.7151C14.7128 21.6951 14.8664 21.6815 15.0177 21.6682C15.3349 21.6402 15.6421 21.6131 15.9776 21.5292C17.3406 21.2195 18.5177 20.538 19.509 19.5467C20.0666 18.9272 20.5002 18.2457 20.8719 17.5023C21.2437 16.7588 21.4295 16.0154 21.5534 15.21C21.6154 14.8383 21.6154 14.4666 21.6154 14.0949Z" fill="#333333"/>
</svg>
