<svg width="34" height="34" viewBox="0 0 34 34" fill="none" xmlns="http://www.w3.org/2000/svg">
<path fill-rule="evenodd" clip-rule="evenodd" d="M6.57325 5.0831C4.02532 7.24016 2.44025 10.364 2.44025 14.2808V17.4404C2.44025 22.7856 4.07052 26.3233 6.58499 28.5378C9.10205 30.7545 12.6234 31.75 16.6254 31.7623H16.7623H17.7535C21.7866 31.7623 25.3368 30.7682 27.8698 28.5446C30.3842 26.3373 32.0136 22.8151 32.0136 17.5022V14.3426C32.0136 10.4258 30.4285 7.302 27.8806 5.14494C25.3202 2.97735 21.7475 1.75528 17.7535 1.75528H16.7623H16.3286V1.69698C12.4849 1.77043 9.05394 2.98297 6.57325 5.0831ZM5.53473 29.7303C8.36897 32.2264 12.2012 33.2891 16.3286 33.3488V33.3514H16.6232L16.7003 33.3515V33.3514H16.7623H17.7535C22.0222 33.3514 25.9993 32.3011 28.9182 29.7388C31.8556 27.1601 33.6027 23.155 33.6027 17.5022V14.3426C33.6027 9.95769 31.8113 6.39056 28.9074 3.93211C26.0159 1.48419 22.0613 0.16618 17.7535 0.16618H16.7623H16.7003V0.104338C12.3926 0.104338 8.43797 1.42235 5.54648 3.87027C2.64253 6.32872 0.851151 9.89585 0.851151 14.2808V17.4404C0.851151 23.1228 2.59733 27.1434 5.53473 29.7303ZM24.0727 20.538C24.6922 19.237 24.6922 14.1569 24.1346 12.7939C23.9488 12.2983 23.5771 11.9265 23.0814 11.6787C22.1521 11.369 14.346 11.369 11.806 11.6168C11.3103 11.6168 10.8767 11.8646 10.5669 12.2363C9.6376 13.3515 9.76151 18.9272 10.2571 20.2902C10.443 20.8478 10.8147 21.2195 11.3723 21.4054C12.6114 21.839 22.338 21.839 23.2673 21.3434C23.639 21.1576 23.8868 20.9097 24.0727 20.538ZM18.8035 15.8312C19.1942 16.0364 19.587 16.2428 19.9838 16.4491C19.2094 16.8518 18.4505 17.2545 17.6916 17.6572C16.9326 18.0599 16.1737 18.4626 15.3993 18.8653V14.0949C16.5513 14.6479 17.669 15.2351 18.8035 15.8312Z" fill="#333333"/>
</svg>
