<svg width="143" height="49" viewBox="0 0 143 49" fill="none" xmlns="http://www.w3.org/2000/svg">
<path d="M55.2084 5.59283C55.2892 5.57211 55.3328 5.68606 55.2561 5.72336C37.0926 15.0013 35.225 39.9778 35.0737 47.2522H35.0613C34.9099 39.9778 33.0424 15.0013 14.8789 5.72336C14.8043 5.68606 14.8457 5.57211 14.9266 5.59283C17.2087 6.17088 25.4644 8.56598 30.9344 14.1228C33.2041 16.4288 36.9267 16.4288 39.1964 14.1228C44.6664 8.56806 52.9221 6.17088 55.2042 5.59283H55.2084Z" fill="#6A1B9A"/>
<path d="M35.0684 13.5029C37.0842 13.5029 38.7181 11.8693 38.7177 9.85424C38.7174 7.83913 37.0829 6.20557 35.067 6.20557C33.0512 6.20557 31.4173 7.83913 31.4177 9.85424C31.418 11.8693 33.0525 13.5029 35.0684 13.5029Z" fill="#AF52DE"/>
<path d="M69.6992 29.1211C69.8525 29.1791 69.8007 29.4049 69.637 29.3925C61.3999 28.802 54.6862 31.0604 49.4878 34.1599C49.3779 34.2262 49.2681 34.2925 49.1582 34.3588C47.9436 35.1006 46.8139 35.8858 45.7693 36.6897C44.2271 37.8769 42.8674 39.1014 41.6922 40.2803C40.1148 41.8632 38.8712 43.3612 37.955 44.5691C37.8742 44.6727 37.7975 44.7763 37.7249 44.8757C37.1238 45.6858 36.6844 46.3426 36.4067 46.7798C36.3237 46.9082 36.1248 46.8336 36.1476 46.6845C36.2885 45.7355 36.4336 44.8136 36.5849 43.9144C36.6119 43.7569 36.6388 43.5994 36.6657 43.442C37.5031 38.5689 38.4898 34.4458 39.5614 30.9568C39.6091 30.8014 39.6567 30.646 39.7044 30.4948C44.0219 16.7457 49.6163 13.0785 52.0684 12.1068C52.2259 12.0446 52.3399 12.2601 52.1989 12.3554C47.2119 15.6787 44.2582 26.8358 53.312 26.4898C61.0641 26.1935 67.4419 28.2716 69.6971 29.1211H69.6992Z" fill="#6A1B9A"/>
<path d="M57.6261 21.0441C57.7692 19.0341 56.2551 17.2887 54.2442 17.1457C52.2334 17.0027 50.4874 18.5162 50.3443 20.5261C50.2012 22.5361 51.7153 24.2815 53.7261 24.4245C55.7369 24.5675 57.483 23.054 57.6261 21.0441Z" fill="#79D077"/>
<path fill-rule="evenodd" clip-rule="evenodd" d="M57.3503 38.4946C56.6352 44.4078 51.2336 48.7007 45.3097 48.0605C43.1374 47.8264 41.187 46.9728 39.6096 45.6986C39.4438 45.566 39.421 45.3236 39.5578 45.1599C39.8563 44.8056 40.2356 44.3705 40.6937 43.8691C40.8263 43.722 41.0523 43.7034 41.2077 43.8277C42.4058 44.7807 43.8774 45.421 45.5107 45.6095C50.1205 46.142 54.3531 42.8 54.9086 38.1963C55.1096 36.5181 54.805 34.8916 54.1168 33.4765C54.0297 33.2984 54.0961 33.0849 54.266 32.9855C54.7573 32.7016 55.2589 32.424 55.7709 32.1505C55.9595 32.0511 56.1937 32.1257 56.289 32.3163C57.2114 34.1665 57.6177 36.2943 57.3524 38.4967L57.3503 38.4946Z" fill="#6A1B9A"/>
<path fill-rule="evenodd" clip-rule="evenodd" d="M52.2974 38.981C51.9077 41.4735 49.6235 43.276 47.1072 43.0709C45.7807 42.9632 44.6303 42.3374 43.8281 41.4155C43.6955 41.2642 43.7121 41.0342 43.8572 40.8975C44.9371 39.874 46.2159 38.7489 47.6835 37.6011C48.6722 36.8283 49.7458 36.0431 50.9045 35.2723C51.0703 35.1604 51.2983 35.1977 51.4165 35.3593C52.1502 36.3621 52.5047 37.6467 52.2974 38.981Z" fill="#FF9500"/>
<path d="M0.0513553 29.1572C-0.0357002 29.1904 -0.00460891 29.3188 0.0886648 29.3126C8.51439 28.6144 15.3628 30.8976 20.6483 34.0489C20.7581 34.1152 20.868 34.1815 20.9778 34.2478C22.1925 34.9896 23.3221 35.7748 24.3668 36.5787C25.9089 37.7659 27.2686 38.9904 28.4439 40.1693C30.0212 41.7522 31.2649 43.2502 32.181 44.4581C32.2619 44.5617 32.3386 44.6653 32.4111 44.7647C33.1366 45.7427 33.6278 46.501 33.8807 46.9112C33.9263 46.9858 34.0424 46.9423 34.0279 46.8553C33.8745 45.8069 33.7149 44.7896 33.5491 43.8013C33.5221 43.6438 33.4952 43.4864 33.4682 43.3289C32.6308 38.4558 31.6442 34.3328 30.5726 30.8437C30.5249 30.6883 30.4773 30.533 30.4296 30.3817C25.7472 15.4683 19.5622 12.4164 17.5143 11.801C17.421 11.7741 17.3692 11.9026 17.4542 11.9481C22.7252 14.8426 26.1659 26.7331 16.824 26.3747C8.56828 26.0577 1.8733 28.4362 0.0513553 29.1551V29.1572Z" fill="#6A1B9A"/>
<path d="M16.4181 24.3079C18.4289 24.1649 19.943 22.4195 19.7999 20.4096C19.6568 18.3996 17.9108 16.8861 15.8999 17.0291C13.8891 17.1721 12.375 18.9175 12.5181 20.9275C12.6612 22.9375 14.4073 24.4509 16.4181 24.3079Z" fill="#FF7575"/>
<path fill-rule="evenodd" clip-rule="evenodd" d="M12.7863 38.3706C13.5014 44.2838 18.903 48.5767 24.8269 47.9365C26.9991 47.7024 28.9496 46.8488 30.5269 45.5746C30.6928 45.442 30.7156 45.1996 30.5788 45.0359C30.2803 44.6816 29.901 44.2465 29.4429 43.7451C29.3102 43.598 29.0843 43.5793 28.9288 43.7036C27.7308 44.6567 26.2591 45.2969 24.6258 45.4855C20.016 46.0179 15.7835 42.676 15.228 38.0723C15.0269 36.394 15.3316 34.7676 16.0198 33.3525C16.1068 33.1743 16.0405 32.9609 15.8705 32.8615C15.3793 32.5776 14.8777 32.3 14.3657 32.0265C14.1771 31.9271 13.9429 32.0016 13.8475 32.1923C12.9251 34.0424 12.5189 36.1703 12.7842 38.3727L12.7863 38.3706Z" fill="#6A1B9A"/>
<path fill-rule="evenodd" clip-rule="evenodd" d="M17.8415 38.855C18.2312 41.3475 20.5154 43.15 23.0317 42.9449C24.3582 42.8372 25.5086 42.2115 26.3108 41.2895C26.4434 41.1382 26.4269 40.9083 26.2818 40.7715C25.2019 39.748 23.923 38.623 22.4555 37.4751C21.4668 36.7023 20.3931 35.9171 19.2344 35.1463C19.0686 35.0345 18.8406 35.0718 18.7224 35.2334C17.9887 36.2362 17.6342 37.5207 17.8415 38.855Z" fill="#FF9500"/>
<path d="M39.2087 7.60796H39.2045C38.4687 6.02504 36.8706 4.92487 35.0093 4.92487C33.1479 4.92487 31.5478 6.02504 30.814 7.60796H30.8099V4.90415L27.4748 3.13891V6.70048C27.8147 6.79786 27.6717 7.148 27.7505 7.48365C27.8293 7.81929 27.9018 7.90839 27.9018 7.90839C27.9018 7.90839 27.6779 8.05135 27.479 7.78822C27.28 7.52509 27.0478 7.72399 27.0478 7.72399C27.0395 6.77299 27.3359 6.69219 27.3359 6.69219V3.06225L26.824 2.79083L35.0093 0L43.1966 2.7929L39.2087 4.90208V7.60589V7.60796Z" fill="#6A1B9A"/>
<path d="M75.6069 10.7867H77.8745C78.0419 13.002 79.4061 13.943 81.8204 13.943C84.0238 13.943 85.388 13.002 85.388 11.2252C85.388 9.92795 84.6314 9.09206 82.8476 8.79972L79.5322 8.25616C77.244 7.90217 75.8798 6.41765 75.8798 4.26397C75.8798 1.56901 78.0832 0 81.5476 0C85.012 0 86.8371 1.48451 87.1512 4.32792H84.8836C84.7162 2.69724 83.4988 1.84079 81.4834 1.84079C79.3213 1.84079 78.0832 2.65613 78.0832 4.14064C78.0832 5.37393 78.9223 6.1276 80.6855 6.41994L83.8542 6.94294C86.2478 7.31978 87.6946 8.80429 87.6533 11.1864C87.6121 14.1965 85.3238 15.7861 81.7562 15.7861C77.7484 15.7838 75.733 13.7557 75.6069 10.7867Z" fill="#6A1B9A"/>
<path d="M90.1467 4.47318H92.2234V6.01677H92.2646C93.0829 4.78975 94.2794 4.1543 95.8105 4.1543C98.6849 4.1543 100.532 6.37493 100.532 9.88728C100.532 13.3996 98.7078 15.6203 95.6432 15.6203C94.2794 15.6203 93.0829 15.0495 92.2853 13.9912H92.244V19.1095H90.1467V4.47318ZM98.3915 9.88728C98.3915 7.37087 97.2385 5.82497 95.3498 5.82497C93.2525 5.82497 92.1386 7.49565 92.1386 9.88728C92.1386 12.2789 93.2503 13.9496 95.3063 13.9496C97.2156 13.9496 98.3915 12.4268 98.3915 9.88728Z" fill="#6A1B9A"/>
<path d="M102.62 19.0081V17.3794H102.682C102.996 17.419 103.289 17.4388 103.562 17.4388C104.632 17.4388 105.178 17.0959 105.597 16.0914L105.932 15.2671L101.779 4.98486H104.002L106.184 10.8799L107.023 13.1131H107.064L107.862 10.9393L110.003 4.98486H112.164L107.821 16.0298C106.917 18.3641 105.911 19.1092 104.002 19.1092C103.518 19.1092 103.058 19.0697 102.617 19.0081H102.62Z" fill="#6A1B9A"/>
<path d="M75.6069 30.3133C75.6069 24.7955 78.7828 20.771 84.1174 20.771C88.3594 20.771 91.2865 23.3271 91.7329 27.1997H89.0789C88.5837 24.7184 86.9202 23.0484 84.1174 23.0484C80.222 23.0484 78.312 26.0848 78.312 30.3133C78.312 34.5417 80.222 37.6031 84.1174 37.6031C86.9202 37.6031 88.7325 35.9081 89.1544 32.9962H91.8084C91.4109 37.2246 88.3594 39.8804 84.1174 39.8804C78.7828 39.8804 75.6069 35.831 75.6069 30.311V30.3133Z" fill="#AF52DE"/>
<path d="M95.5471 21.1865H98.0397V39.0497H95.5471V21.1865Z" fill="#AF52DE"/>
<path d="M100.95 36.0647C100.95 33.7618 102.227 32.2695 106.671 31.9661L109.836 31.7374V30.8769C109.836 29.131 108.879 28.0939 106.99 28.0939C105.554 28.0939 104.17 28.7008 104.063 30.27H101.562C101.643 27.9173 103.532 26.1714 107.15 26.1714C110.768 26.1714 112.471 27.9422 112.471 31.434V36.9479C112.471 37.5049 112.683 37.7563 113.161 37.7563C113.373 37.7563 113.588 37.7314 113.773 37.7065H113.826V39.6539C113.373 39.7558 112.947 39.8056 112.523 39.8056C111.273 39.8056 110.182 39.3006 110.129 37.7563V37.6793H110.048C109.117 39.0697 107.574 39.8803 105.552 39.8803C103.025 39.8803 100.948 38.5896 100.948 36.0602L100.95 36.0647ZM109.863 34.346V33.4606L106.723 33.7143C104.17 33.8909 103.584 34.7016 103.584 35.99C103.584 37.2038 104.489 37.9873 106.085 37.9873C108.345 37.9873 109.863 36.495 109.863 34.3438V34.346Z" fill="#AF52DE"/>
<path d="M115.903 35.3779H118.313C118.462 37.124 119.455 37.9575 121.44 37.9575C123.227 37.9575 124.246 37.2486 124.246 35.9599C124.246 34.8728 123.55 34.2138 122.06 34.0122L119.578 33.6589C117.368 33.3554 116.125 32.0894 116.125 30.0669C116.125 27.7636 118.137 26.1714 121.091 26.1714C124.394 26.1714 126.182 27.7658 126.257 30.1937H123.874C123.75 28.6514 122.607 28.0693 121.094 28.0693C119.331 28.0693 118.511 28.8031 118.511 29.8902C118.511 30.8007 119.006 31.4847 120.72 31.736L123.179 32.0894C125.464 32.4178 126.704 33.7585 126.704 35.8082C126.704 38.338 124.692 39.8803 121.416 39.8803C118.139 39.8803 116.052 38.2859 115.903 35.3779Z" fill="#AF52DE"/>
<path d="M129.612 35.3779H132.114C132.269 37.124 133.301 37.9575 135.362 37.9575C137.218 37.9575 138.275 37.2486 138.275 35.9599C138.275 34.8728 137.553 34.2138 136.006 34.0122L133.428 33.6589C131.133 33.3554 129.843 32.0894 129.843 30.0669C129.843 27.7636 131.932 26.1714 135 26.1714C138.43 26.1714 140.286 27.7658 140.364 30.1937H137.89C137.76 28.6514 136.574 28.0693 135.002 28.0693C133.171 28.0693 132.32 28.8031 132.32 29.8902C132.32 30.8007 132.834 31.4847 134.614 31.736L137.167 32.0894C139.54 32.4178 140.828 33.7585 140.828 35.8082C140.828 38.338 138.739 39.8803 135.337 39.8803C131.934 39.8803 129.766 38.2859 129.612 35.3779Z" fill="#AF52DE"/>
<path d="M76.438 47.3584L75.6838 44.6392H76.1153L76.6451 46.745H76.6703L77.2213 44.6392H77.6488L78.1998 46.7463H78.2251L78.7535 44.6392H79.1863L78.4309 47.3584H78.0179L77.4457 45.3217H77.4245L76.8522 47.3584H76.438Z" fill="#595959"/>
<path d="M79.5604 47.3584V44.6392H79.9707V45.8209H81.3262V44.6392H81.7378V47.3584H81.3262V46.1727H79.9707V47.3584H79.5604Z" fill="#595959"/>
<path d="M82.3353 47.3584V44.6392H84.0401V44.9924H82.7455V45.8209H83.9511V46.1727H82.7455V47.0052H84.056V47.3584H82.3353Z" fill="#595959"/>
<path d="M84.5881 47.3584V44.6392H85.5573C85.7679 44.6392 85.9428 44.6755 86.0817 44.7481C86.2216 44.8207 86.326 44.9211 86.3951 45.0495C86.4641 45.1769 86.4986 45.3243 86.4986 45.4916C86.4986 45.658 86.4637 45.8045 86.3937 45.9311C86.3247 46.0568 86.2202 46.1546 86.0804 46.2245C85.9414 46.2944 85.7666 46.3294 85.556 46.3294H84.8217V45.9762H85.5188C85.6515 45.9762 85.7595 45.9572 85.8427 45.9191C85.9268 45.8811 85.9883 45.8257 86.0273 45.7532C86.0662 45.6806 86.0857 45.5934 86.0857 45.4916C86.0857 45.3889 86.0658 45.3 86.026 45.2247C85.987 45.1495 85.9255 45.092 85.8414 45.0521C85.7582 45.0114 85.6489 44.9911 85.5135 44.9911H84.9983V47.3584H84.5881ZM85.9304 46.1316L86.6022 47.3584H86.1348L85.4763 46.1316H85.9304Z" fill="#595959"/>
<path d="M86.9978 47.3584V44.6392H88.7026V44.9924H87.4081V45.8209H88.6136V46.1727H87.4081V47.0052H88.7185V47.3584H86.9978Z" fill="#595959"/>
<path d="M90.2401 47.3584V44.6392H90.6503V47.0052H91.8824V47.3584H90.2401Z" fill="#595959"/>
<path d="M92.3505 47.3584V44.6392H94.0552V44.9924H92.7607V45.8209H93.9663V46.1727H92.7607V47.0052H94.0712V47.3584H92.3505Z" fill="#595959"/>
<path d="M94.8329 47.3584H94.3974L95.376 44.6392H95.8499L96.8285 47.3584H96.393L95.6242 45.1331H95.603L94.8329 47.3584ZM94.906 46.2935H96.3186V46.6387H94.906V46.2935Z" fill="#595959"/>
<path d="M97.2211 47.3584V44.6392H98.1903C98.401 44.6392 98.5758 44.6755 98.7148 44.7481C98.8546 44.8207 98.9591 44.9211 99.0281 45.0495C99.0972 45.1769 99.1317 45.3243 99.1317 45.4916C99.1317 45.658 99.0967 45.8045 99.0268 45.9311C98.9578 46.0568 98.8533 46.1546 98.7135 46.2245C98.5745 46.2944 98.3997 46.3294 98.189 46.3294H97.4548V45.9762H98.1518C98.2846 45.9762 98.3926 45.9572 98.4758 45.9191C98.5599 45.8811 98.6214 45.8257 98.6604 45.7532C98.6993 45.6806 98.7188 45.5934 98.7188 45.4916C98.7188 45.3889 98.6989 45.3 98.659 45.2247C98.6201 45.1495 98.5586 45.092 98.4745 45.0521C98.3913 45.0114 98.282 44.9911 98.1465 44.9911H97.6314V47.3584H97.2211ZM98.5634 46.1316L99.2353 47.3584H98.7679L98.1094 46.1316H98.5634Z" fill="#595959"/>
<path d="M101.826 44.6392V47.3584H101.449L100.066 45.3642H100.041V47.3584H99.6309V44.6392H100.011L101.394 46.6361H101.419V44.6392H101.826Z" fill="#595959"/>
<path d="M102.834 44.6392V47.3584H102.424V44.6392H102.834Z" fill="#595959"/>
<path d="M105.626 44.6392V47.3584H105.249L103.867 45.3642H103.842V47.3584H103.432V44.6392H103.812L105.195 46.6361H105.22V44.6392H105.626Z" fill="#595959"/>
<path d="M108.065 45.4982C108.039 45.4177 108.005 45.3456 107.962 45.2818C107.919 45.2172 107.868 45.1623 107.809 45.1172C107.75 45.0712 107.682 45.0362 107.606 45.0123C107.531 44.9884 107.448 44.9765 107.357 44.9765C107.204 44.9765 107.066 45.0159 106.943 45.0946C106.82 45.1734 106.723 45.2889 106.651 45.4412C106.58 45.5925 106.545 45.778 106.545 45.9975C106.545 46.2179 106.581 46.4042 106.652 46.5564C106.724 46.7087 106.822 46.8242 106.947 46.903C107.072 46.9817 107.214 47.0211 107.373 47.0211C107.521 47.0211 107.65 46.991 107.76 46.9308C107.87 46.8706 107.956 46.7857 108.016 46.6759C108.077 46.5653 108.108 46.4352 108.108 46.2856L108.214 46.3055H107.436V45.9669H108.505V46.2763C108.505 46.5046 108.456 46.7029 108.359 46.8711C108.262 47.0384 108.128 47.1676 107.958 47.2588C107.788 47.3499 107.593 47.3955 107.373 47.3955C107.127 47.3955 106.911 47.3389 106.725 47.2256C106.54 47.1123 106.396 46.9516 106.293 46.7436C106.189 46.5347 106.137 46.2869 106.137 46.0001C106.137 45.7833 106.167 45.5885 106.228 45.4159C106.288 45.2433 106.372 45.0968 106.481 44.9765C106.591 44.8552 106.72 44.7627 106.868 44.699C107.016 44.6344 107.179 44.6021 107.355 44.6021C107.502 44.6021 107.638 44.6237 107.765 44.6671C107.893 44.7105 108.006 44.772 108.105 44.8517C108.205 44.9313 108.288 45.026 108.353 45.1358C108.419 45.2447 108.463 45.3655 108.486 45.4982H108.065Z" fill="#595959"/>
<path d="M110.015 44.6392H110.513L111.378 46.7529H111.41L112.276 44.6392H112.774V47.3584H112.383V45.3907H112.358L111.556 47.3544H111.232L110.43 45.3894H110.405V47.3584H110.015V44.6392Z" fill="#595959"/>
<path d="M113.37 47.3584V44.6392H115.075V44.9924H113.781V45.8209H114.986V46.1727H113.781V47.0052H115.091V47.3584H113.37Z" fill="#595959"/>
<path d="M115.623 47.3584V44.6392H117.328V44.9924H116.033V45.8209H117.239V46.1727H116.033V47.0052H117.344V47.3584H115.623Z" fill="#595959"/>
<path d="M117.742 44.9924V44.6392H119.846V44.9924H118.998V47.3584H118.589V44.9924H117.742Z" fill="#595959"/>
<path d="M121.794 45.3535C121.78 45.2278 121.722 45.1305 121.619 45.0614C121.516 44.9915 121.387 44.9565 121.231 44.9565C121.12 44.9565 121.023 44.9742 120.942 45.0097C120.86 45.0442 120.797 45.092 120.752 45.153C120.708 45.2132 120.686 45.2818 120.686 45.3588C120.686 45.4235 120.701 45.4792 120.731 45.5261C120.762 45.573 120.802 45.6124 120.852 45.6443C120.902 45.6753 120.956 45.7014 121.014 45.7226C121.071 45.743 121.126 45.7598 121.179 45.7731L121.445 45.8421C121.532 45.8634 121.621 45.8921 121.712 45.9284C121.803 45.9647 121.888 46.0125 121.965 46.0718C122.043 46.1311 122.106 46.2046 122.154 46.2922C122.203 46.3798 122.227 46.4847 122.227 46.6069C122.227 46.7609 122.187 46.8976 122.108 47.0171C122.029 47.1366 121.914 47.2309 121.764 47.2999C121.614 47.369 121.433 47.4035 121.221 47.4035C121.017 47.4035 120.841 47.3712 120.692 47.3066C120.544 47.242 120.427 47.1504 120.343 47.0317C120.259 46.9122 120.212 46.7706 120.204 46.6069H120.615C120.623 46.7051 120.655 46.787 120.711 46.8525C120.767 46.9171 120.84 46.9654 120.927 46.9972C121.016 47.0282 121.113 47.0437 121.218 47.0437C121.334 47.0437 121.437 47.0255 121.527 46.9893C121.619 46.9521 121.69 46.9007 121.742 46.8352C121.795 46.7689 121.821 46.6914 121.821 46.6029C121.821 46.5223 121.798 46.4564 121.752 46.4051C121.707 46.3537 121.645 46.3112 121.567 46.2776C121.49 46.244 121.403 46.2143 121.306 46.1887L120.984 46.101C120.767 46.0417 120.594 45.9545 120.467 45.8395C120.34 45.7244 120.277 45.5722 120.277 45.3827C120.277 45.2261 120.319 45.0893 120.404 44.9725C120.489 44.8556 120.604 44.7649 120.749 44.7003C120.894 44.6348 121.058 44.6021 121.241 44.6021C121.425 44.6021 121.587 44.6344 121.728 44.699C121.869 44.7636 121.981 44.8525 122.062 44.9658C122.144 45.0783 122.186 45.2075 122.19 45.3535H121.794Z" fill="#595959"/>
<path d="M123.707 47.3584V44.6392H124.676C124.888 44.6392 125.063 44.6777 125.202 44.7547C125.341 44.8317 125.445 44.9371 125.514 45.0707C125.583 45.2035 125.617 45.3531 125.617 45.5195C125.617 45.6868 125.582 45.8373 125.512 45.9709C125.443 46.1037 125.339 46.209 125.199 46.2869C125.06 46.3639 124.885 46.4024 124.675 46.4024H124.008V46.0546H124.637C124.771 46.0546 124.88 46.0315 124.963 45.9855C125.046 45.9386 125.107 45.8749 125.146 45.7943C125.185 45.7138 125.204 45.6222 125.204 45.5195C125.204 45.4168 125.185 45.3256 125.146 45.246C125.107 45.1663 125.046 45.1039 124.961 45.0588C124.878 45.0136 124.768 44.9911 124.632 44.9911H124.117V47.3584H123.707Z" fill="#595959"/>
<path d="M126.098 47.3584V44.6392H127.067C127.278 44.6392 127.453 44.6755 127.592 44.7481C127.732 44.8207 127.836 44.9211 127.905 45.0495C127.974 45.1769 128.009 45.3243 128.009 45.4916C128.009 45.658 127.974 45.8045 127.904 45.9311C127.835 46.0568 127.73 46.1546 127.591 46.2245C127.452 46.2944 127.277 46.3294 127.066 46.3294H126.332V45.9762H127.029C127.162 45.9762 127.27 45.9572 127.353 45.9191C127.437 45.8811 127.499 45.8257 127.538 45.7532C127.576 45.6806 127.596 45.5934 127.596 45.4916C127.596 45.3889 127.576 45.3 127.536 45.2247C127.497 45.1495 127.436 45.092 127.352 45.0521C127.268 45.0114 127.159 44.9911 127.024 44.9911H126.509V47.3584H126.098ZM127.441 46.1316L128.112 47.3584H127.645L126.987 46.1316H127.441Z" fill="#595959"/>
<path d="M128.508 47.3584V44.6392H130.213V44.9924H128.918V45.8209H130.124V46.1727H128.918V47.0052H130.229V47.3584H128.508Z" fill="#595959"/>
<path d="M133.019 45.5235H132.605C132.589 45.435 132.559 45.3571 132.516 45.2898C132.473 45.2225 132.42 45.1654 132.357 45.1185C132.294 45.0716 132.224 45.0362 132.146 45.0123C132.069 44.9884 131.987 44.9765 131.9 44.9765C131.743 44.9765 131.603 45.0159 131.479 45.0946C131.356 45.1734 131.259 45.2889 131.187 45.4412C131.116 45.5934 131.081 45.7793 131.081 45.9988C131.081 46.2201 131.116 46.4068 131.187 46.5591C131.259 46.7113 131.357 46.8264 131.48 46.9043C131.604 46.9822 131.744 47.0211 131.899 47.0211C131.985 47.0211 132.066 47.0096 132.143 46.9866C132.221 46.9627 132.291 46.9277 132.354 46.8817C132.417 46.8357 132.47 46.7795 132.513 46.7131C132.558 46.6458 132.588 46.5688 132.605 46.4821L133.019 46.4834C132.997 46.6171 132.954 46.7401 132.89 46.8525C132.828 46.964 132.747 47.0605 132.647 47.1419C132.549 47.2225 132.437 47.2849 132.31 47.3291C132.184 47.3734 132.046 47.3955 131.896 47.3955C131.661 47.3955 131.451 47.3398 131.267 47.2282C131.083 47.1158 130.937 46.9552 130.831 46.7463C130.726 46.5374 130.673 46.2882 130.673 45.9988C130.673 45.7085 130.726 45.4593 130.833 45.2513C130.939 45.0424 131.084 44.8822 131.268 44.7707C131.452 44.6583 131.661 44.6021 131.896 44.6021C132.04 44.6021 132.175 44.6229 132.3 44.6645C132.425 44.7052 132.538 44.7654 132.638 44.845C132.738 44.9238 132.821 45.0203 132.886 45.1345C132.952 45.2478 132.996 45.3774 133.019 45.5235Z" fill="#595959"/>
<path d="M133.92 44.6392V47.3584H133.51V44.6392H133.92Z" fill="#595959"/>
<path d="M136.001 45.3535C135.987 45.2278 135.928 45.1305 135.826 45.0614C135.723 44.9915 135.594 44.9565 135.438 44.9565C135.326 44.9565 135.23 44.9742 135.149 45.0097C135.067 45.0442 135.004 45.092 134.959 45.153C134.914 45.2132 134.892 45.2818 134.892 45.3588C134.892 45.4235 134.907 45.4792 134.937 45.5261C134.968 45.573 135.009 45.6124 135.058 45.6443C135.109 45.6753 135.163 45.7014 135.22 45.7226C135.278 45.743 135.333 45.7598 135.386 45.7731L135.652 45.8421C135.738 45.8634 135.827 45.8921 135.919 45.9284C136.01 45.9647 136.094 46.0125 136.172 46.0718C136.25 46.1311 136.313 46.2046 136.361 46.2922C136.409 46.3798 136.434 46.4847 136.434 46.6069C136.434 46.7609 136.394 46.8976 136.314 47.0171C136.235 47.1366 136.121 47.2309 135.97 47.2999C135.821 47.369 135.64 47.4035 135.427 47.4035C135.224 47.4035 135.048 47.3712 134.899 47.3066C134.75 47.242 134.634 47.1504 134.55 47.0317C134.466 46.9122 134.419 46.7706 134.41 46.6069H134.822C134.83 46.7051 134.862 46.787 134.918 46.8525C134.974 46.9171 135.046 46.9654 135.134 46.9972C135.222 47.0282 135.319 47.0437 135.425 47.0437C135.541 47.0437 135.644 47.0255 135.734 46.9893C135.825 46.9521 135.897 46.9007 135.949 46.8352C136.001 46.7689 136.027 46.6914 136.027 46.6029C136.027 46.5223 136.004 46.4564 135.958 46.4051C135.913 46.3537 135.852 46.3112 135.774 46.2776C135.697 46.244 135.61 46.2143 135.512 46.1887L135.191 46.101C134.973 46.0417 134.801 45.9545 134.673 45.8395C134.547 45.7244 134.483 45.5722 134.483 45.3827C134.483 45.2261 134.526 45.0893 134.611 44.9725C134.696 44.8556 134.811 44.7649 134.956 44.7003C135.101 44.6348 135.265 44.6021 135.447 44.6021C135.631 44.6021 135.794 44.6344 135.935 44.699C136.076 44.7636 136.188 44.8525 136.269 44.9658C136.351 45.0783 136.393 45.2075 136.397 45.3535H136.001Z" fill="#595959"/>
<path d="M137.334 44.6392V47.3584H136.924V44.6392H137.334Z" fill="#595959"/>
<path d="M140.294 45.9988C140.294 46.2891 140.241 46.5387 140.134 46.7476C140.028 46.9556 139.883 47.1158 139.698 47.2282C139.513 47.3398 139.304 47.3955 139.07 47.3955C138.834 47.3955 138.624 47.3398 138.439 47.2282C138.255 47.1158 138.11 46.9552 138.003 46.7463C137.897 46.5374 137.844 46.2882 137.844 45.9988C137.844 45.7085 137.897 45.4593 138.003 45.2513C138.11 45.0424 138.255 44.8822 138.439 44.7707C138.624 44.6583 138.834 44.6021 139.07 44.6021C139.304 44.6021 139.513 44.6583 139.698 44.7707C139.883 44.8822 140.028 45.0424 140.134 45.2513C140.241 45.4593 140.294 45.7085 140.294 45.9988ZM139.887 45.9988C139.887 45.7775 139.852 45.5912 139.78 45.4398C139.709 45.2876 139.612 45.1725 139.488 45.0946C139.365 45.0159 139.225 44.9765 139.07 44.9765C138.913 44.9765 138.773 45.0159 138.65 45.0946C138.527 45.1725 138.43 45.2876 138.358 45.4398C138.287 45.5912 138.252 45.7775 138.252 45.9988C138.252 46.2201 138.287 46.4068 138.358 46.5591C138.43 46.7104 138.527 46.8255 138.65 46.9043C138.773 46.9822 138.913 47.0211 139.07 47.0211C139.225 47.0211 139.365 46.9822 139.488 46.9043C139.612 46.8255 139.709 46.7104 139.78 46.5591C139.852 46.4068 139.887 46.2201 139.887 45.9988Z" fill="#595959"/>
<path d="M143 44.6392V47.3584H142.623L141.241 45.3642H141.215V47.3584H140.805V44.6392H141.185L142.568 46.6361H142.594V44.6392H143Z" fill="#595959"/>
</svg>
