<svg width="34" height="34" viewBox="0 0 34 34" fill="none" xmlns="http://www.w3.org/2000/svg">
<circle cx="17" cy="17" r="17" fill="#E63A47"/>
<path d="M8.77899 8H24.364C24.2908 8.0877 24.2434 8.15417 24.1864 8.21111C19.1814 13.2178 14.1769 18.225 9.1635 23.2232C9.0346 23.3518 8.80975 23.4358 8.62427 23.4464C8.10482 23.4763 7.58262 23.4569 7 23.4569C9.06792 21.3966 11.0829 19.3891 13.1335 17.3461L7.39641 11.2912L7.67399 11.2908C9.70419 11.2899 11.7346 11.2842 13.7646 11.2998C13.9332 11.3011 14.1687 11.3998 14.2873 11.5195C15.0424 12.2827 15.7743 13.0691 16.4906 13.8231C17.9643 12.3512 19.4304 10.8871 20.9027 9.41664C20.8227 9.41224 20.7196 9.40162 20.6163 9.40162C17.2299 9.40089 13.8437 9.39888 10.4573 9.4062C10.2286 9.40675 10.0715 9.33607 9.91439 9.1755C9.53903 8.7919 9.14354 8.4279 8.75647 8.05566C8.76727 8.02875 8.768 8.02692 8.77899 8ZM15.5212 14.8455C14.8899 14.1765 14.2648 13.5056 13.6265 12.8475C13.5471 12.7655 13.3995 12.7117 13.2825 12.7099C12.517 12.6976 11.7509 12.7023 10.9852 12.7049C10.9167 12.7051 10.8482 12.7298 10.7208 12.7547C11.8664 13.9639 12.9736 15.1326 14.0825 16.303C14.5743 15.8048 15.0329 15.3401 15.5212 14.8455Z" fill="white"/>
<path d="M25.9999 11.294C23.9406 13.3452 21.9254 15.3524 19.8754 17.3943C21.784 19.4074 23.6536 21.3796 25.5632 23.3939C25.4189 23.4065 25.3281 23.4213 25.2371 23.4213C23.232 23.4224 21.227 23.4184 19.2219 23.4267C18.9941 23.4276 18.8301 23.3624 18.677 23.1978C18.0133 22.485 17.3402 21.781 16.6743 21.0702C16.6153 21.0072 16.5838 20.9186 16.5501 20.8602C15.0299 22.3839 13.5709 23.8465 12.0913 25.3294C12.194 25.3342 12.3057 25.3437 12.4172 25.3439C15.7809 25.345 19.1445 25.3485 22.5082 25.3393C22.7731 25.3386 22.956 25.4155 23.1349 25.6044C23.4845 25.9736 23.8582 26.3202 24.2828 26.7358H8.66333C8.74005 26.6437 8.79278 26.5695 8.85613 26.506C13.8676 21.4928 18.8797 16.4801 23.8942 11.4696C23.9677 11.3961 24.0689 11.3038 24.1592 11.3015C24.7563 11.2865 25.3539 11.2938 25.9997 11.2938L25.9999 11.294ZM18.9517 18.4617C18.4588 18.9521 17.9895 19.4188 17.5001 19.9057C18.1301 20.5731 18.7697 21.2597 19.4242 21.9316C19.501 22.0104 19.6595 22.0371 19.7811 22.0395C20.3504 22.0503 20.9198 22.0443 21.4892 22.0441C21.7476 22.0441 22.0059 22.0441 22.2645 22.0441C22.2769 22.0151 22.278 22.0124 22.2905 21.9835C21.1728 20.8047 20.055 19.6255 18.9517 18.4617Z" fill="white"/>
</svg>
